<svg width="117" height="24" viewBox="0 0 117 24" fill="none" xmlns="http://www.w3.org/2000/svg">
<path fill-rule="evenodd" clip-rule="evenodd" d="M18.8157 23.8266H12.5259L7.8093 6.55959C7.58543 5.76531 7.1101 5.06312 6.41089 4.73217C4.66594 3.90047 2.74313 3.23857 0.645508 2.90474V2.23996H10.7779C12.1763 2.23996 13.2251 3.23857 13.3999 4.39834L15.8471 16.8536L22.1338 2.23996H28.2488L18.8157 23.8266ZM31.7445 23.8266H25.8043L30.6957 2.23996H36.6359L31.7445 23.8266ZM44.3216 8.22011C44.4964 7.05746 45.5452 6.39268 46.7688 6.39268C48.6917 6.22577 50.7862 6.55959 52.5342 7.38841L53.583 2.74071C51.835 2.07592 49.9122 1.7421 48.1672 1.7421C42.4019 1.7421 38.2066 4.73217 38.2066 8.88201C38.2066 12.039 41.1783 13.6966 43.2759 14.6952C45.5452 15.691 46.4192 16.3557 46.2444 17.3515C46.2444 18.8451 44.4964 19.5099 42.7515 19.5099C40.6538 19.5099 38.5562 19.012 36.6365 18.1803L35.5877 22.8309C37.6853 23.6597 39.9546 23.9935 42.0523 23.9935C48.5168 24.1576 52.5342 21.1704 52.5342 16.6867C52.5342 11.0404 44.3216 10.7094 44.3216 8.22011ZM73.3207 23.8266L68.6041 2.23996H63.5379C62.4891 2.23996 61.4403 2.90474 61.0907 3.90047L52.3568 23.8266H58.4717L59.6923 20.6725H67.2057L67.9049 23.8266H73.3207ZM64.415 8.05334L66.16 16.189H61.2686L64.415 8.05334Z" fill="#E6F0ED"/>
<path fill-rule="evenodd" clip-rule="evenodd" d="M94.7993 21.1335C92.5244 22.9209 89.5734 24 86.3489 24C79.1537 24 73.3208 18.6274 73.3208 12C73.3208 5.37258 79.1537 0 86.3489 0C89.5734 0 92.5244 1.07905 94.7993 2.86652C97.0743 1.07905 100.025 0 103.25 0C110.445 0 116.278 5.37258 116.278 12C116.278 18.6274 110.445 24 103.25 24C100.025 24 97.0743 22.9209 94.7993 21.1335Z" fill="#E1E1E1"/>
<path fill-rule="evenodd" clip-rule="evenodd" d="M94.7996 21.1335C97.6009 18.9325 99.3772 15.6573 99.3772 12C99.3772 8.34269 97.6009 5.06751 94.7996 2.86649C97.0745 1.07904 100.025 0 103.25 0C110.445 0 116.278 5.37258 116.278 12C116.278 18.6274 110.445 24 103.25 24C100.025 24 97.0745 22.921 94.7996 21.1335Z" fill="#CBCBCB"/>
<path fill-rule="evenodd" clip-rule="evenodd" d="M94.7993 21.1336C97.6006 18.9326 99.3769 15.6574 99.3769 12.0001C99.3769 8.34286 97.6006 5.06772 94.7993 2.8667C91.9981 5.06772 90.2218 8.34287 90.2218 12.0001C90.2218 15.6574 91.9981 18.9326 94.7993 21.1336Z" fill="#CBCBCB"/>
</svg>
