<svg width="127" height="66" viewBox="0 0 127 66" fill="none" xmlns="http://www.w3.org/2000/svg">
<g id="Frame">
<g id="Clip path group">
<mask id="mask0_2_164" style="mask-type:luminance" maskUnits="userSpaceOnUse" x="0" y="0" width="13" height="66">
<g id="clip0_702_1320">
<path id="Vector" d="M10.6516 0.196655H2.04839C0.917094 0.196655 0 1.11433 0 2.24634V63.737C0 64.869 0.917094 65.7867 2.04839 65.7867H10.6516C11.7829 65.7867 12.7 64.869 12.7 63.737V2.24634C12.7 1.11433 11.7829 0.196655 10.6516 0.196655Z" fill="white"/>
</g>
</mask>
<g mask="url(#mask0_2_164)">
<g id="Group">
<path id="Vector_2" d="M10.6516 0.196655H2.04839C0.917094 0.196655 0 1.11433 0 2.24634V63.737C0 64.869 0.917094 65.7867 2.04839 65.7867H10.6516C11.7829 65.7867 12.7 64.869 12.7 63.737V2.24634C12.7 1.11433 11.7829 0.196655 10.6516 0.196655Z" fill="#F3F3F3"/>
<path id="Vector_3" d="M12.7 0.196655H0V15.3644H12.7V0.196655Z" fill="#F2F2F2"/>
<path id="Vector_4" d="M12.7 15.3644H0V30.5321H12.7V15.3644Z" fill="#FFC300"/>
<path id="Vector_5" d="M12.7 30.532H0V65.7866H12.7V30.532Z" fill="#5C0C87"/>
</g>
</g>
</g>
<g id="Clip path group_2">
<mask id="mask1_2_164" style="mask-type:luminance" maskUnits="userSpaceOnUse" x="15" y="5" width="14" height="61">
<g id="clip1_702_1320">
<path id="Vector_6" d="M26.2194 5.11584H17.6161C16.4848 5.11584 15.5677 6.03352 15.5677 7.16553V63.737C15.5677 64.869 16.4848 65.7867 17.6161 65.7867H26.2194C27.3507 65.7867 28.2677 64.869 28.2677 63.737V7.16553C28.2677 6.03352 27.3507 5.11584 26.2194 5.11584Z" fill="white"/>
</g>
</mask>
<g mask="url(#mask1_2_164)">
<g id="Group_2">
<path id="Vector_7" d="M26.2194 5.11584H17.6161C16.4848 5.11584 15.5677 6.03352 15.5677 7.16553V63.737C15.5677 64.869 16.4848 65.7867 17.6161 65.7867H26.2194C27.3507 65.7867 28.2677 64.869 28.2677 63.737V7.16553C28.2677 6.03352 27.3507 5.11584 26.2194 5.11584Z" fill="#F3F3F3"/>
<path id="Vector_8" d="M28.2677 5.11584H15.5677V14.5444H28.2677V5.11584Z" fill="#F2F2F2"/>
<path id="Vector_9" d="M28.2677 14.5444H15.5677V45.6997H28.2677V14.5444Z" fill="#FFC300"/>
<path id="Vector_10" d="M28.2677 45.6998H15.5677V65.7868H28.2677V45.6998Z" fill="#5C0C87"/>
</g>
</g>
</g>
<g id="Clip path group_3">
<mask id="mask2_2_164" style="mask-type:luminance" maskUnits="userSpaceOnUse" x="31" y="12" width="13" height="54">
<g id="clip2_702_1320">
<path id="Vector_11" d="M41.7871 12.0848H33.1839C32.0526 12.0848 31.1355 13.0025 31.1355 14.1345V63.737C31.1355 64.869 32.0526 65.7867 33.1839 65.7867H41.7871C42.9184 65.7867 43.8355 64.869 43.8355 63.737V14.1345C43.8355 13.0025 42.9184 12.0848 41.7871 12.0848Z" fill="white"/>
</g>
</mask>
<g mask="url(#mask2_2_164)">
<g id="Group_3">
<path id="Vector_12" d="M41.7871 12.0848H33.1839C32.0526 12.0848 31.1355 13.0025 31.1355 14.1345V63.737C31.1355 64.869 32.0526 65.7867 33.1839 65.7867H41.7871C42.9184 65.7867 43.8355 64.869 43.8355 63.737V14.1345C43.8355 13.0025 42.9184 12.0848 41.7871 12.0848Z" fill="#F3F3F3"/>
<path id="Vector_13" d="M43.8355 12.0848H31.1355V26.8426H43.8355V12.0848Z" fill="#F2F2F2"/>
<path id="Vector_14" d="M43.8355 26.8427H31.1355V54.3085H43.8355V26.8427Z" fill="#FFC300"/>
<path id="Vector_15" d="M43.8355 54.3086H31.1355V65.7869H43.8355V54.3086Z" fill="#5C0C87"/>
</g>
</g>
</g>
<g id="Clip path group_4">
<mask id="mask3_2_164" style="mask-type:luminance" maskUnits="userSpaceOnUse" x="46" y="24" width="14" height="42">
<g id="clip3_702_1320">
<path id="Vector_16" d="M57.3549 24.3829H48.7516C47.6203 24.3829 46.7032 25.3006 46.7032 26.4326V63.737C46.7032 64.869 47.6203 65.7867 48.7516 65.7867H57.3549C58.4862 65.7867 59.4032 64.869 59.4032 63.737V26.4326C59.4032 25.3006 58.4862 24.3829 57.3549 24.3829Z" fill="white"/>
</g>
</mask>
<g mask="url(#mask3_2_164)">
<g id="Group_4">
<path id="Vector_17" d="M57.3549 24.3829H48.7516C47.6203 24.3829 46.7032 25.3006 46.7032 26.4326V63.737C46.7032 64.869 47.6203 65.7867 48.7516 65.7867H57.3549C58.4862 65.7867 59.4032 64.869 59.4032 63.737V26.4326C59.4032 25.3006 58.4862 24.3829 57.3549 24.3829Z" fill="#F3F3F3"/>
<path id="Vector_18" d="M59.4032 24.3829H46.7032V31.7618H59.4032V24.3829Z" fill="#F2F2F2"/>
<path id="Vector_19" d="M59.4032 31.7618H46.7032V45.6997H59.4032V31.7618Z" fill="#FFC300"/>
<path id="Vector_20" d="M59.4032 45.6998H46.7032V65.7868H59.4032V45.6998Z" fill="#5C0C87"/>
</g>
</g>
</g>
<g id="Clip path group_5">
<mask id="mask4_2_164" style="mask-type:luminance" maskUnits="userSpaceOnUse" x="62" y="34" width="13" height="32">
<g id="clip4_702_1320">
<path id="Vector_21" d="M72.9226 34.6315H64.3194C63.1881 34.6315 62.271 35.5491 62.271 36.6812V63.7371C62.271 64.8691 63.1881 65.7868 64.3194 65.7868H72.9226C74.0539 65.7868 74.971 64.8691 74.971 63.7371V36.6812C74.971 35.5491 74.0539 34.6315 72.9226 34.6315Z" fill="white"/>
</g>
</mask>
<g mask="url(#mask4_2_164)">
<g id="Group_5">
<path id="Vector_22" d="M72.9226 34.6315H64.3194C63.1881 34.6315 62.271 35.5491 62.271 36.6812V63.7371C62.271 64.8691 63.1881 65.7868 64.3194 65.7868H72.9226C74.0539 65.7868 74.971 64.8691 74.971 63.7371V36.6812C74.971 35.5491 74.0539 34.6315 72.9226 34.6315Z" fill="#F3F3F3"/>
<path id="Vector_23" d="M74.971 34.6315H62.271V49.7992H74.971V34.6315Z" fill="#F2F2F2"/>
<path id="Vector_24" d="M74.971 49.7993H62.271V57.1782H74.971V49.7993Z" fill="#FFC300"/>
<path id="Vector_25" d="M74.971 57.1782H62.271V65.7869H74.971V57.1782Z" fill="#5C0C87"/>
</g>
</g>
</g>
<g id="Clip path group_6">
<mask id="mask5_2_164" style="mask-type:luminance" maskUnits="userSpaceOnUse" x="77" y="40" width="14" height="26">
<g id="clip5_702_1320">
<path id="Vector_26" d="M88.4903 40.3706H79.8871C78.7558 40.3706 77.8387 41.2883 77.8387 42.4203V63.7371C77.8387 64.8691 78.7558 65.7868 79.8871 65.7868H88.4903C89.6216 65.7868 90.5387 64.8691 90.5387 63.7371V42.4203C90.5387 41.2883 89.6216 40.3706 88.4903 40.3706Z" fill="white"/>
</g>
</mask>
<g mask="url(#mask5_2_164)">
<g id="Group_6">
<path id="Vector_27" d="M88.4903 40.3706H79.8871C78.7558 40.3706 77.8387 41.2883 77.8387 42.4203V63.7371C77.8387 64.8691 78.7558 65.7868 79.8871 65.7868H88.4903C89.6216 65.7868 90.5387 64.8691 90.5387 63.7371V42.4203C90.5387 41.2883 89.6216 40.3706 88.4903 40.3706Z" fill="#F3F3F3"/>
<path id="Vector_28" d="M90.5387 40.3706H77.8387V45.2899H90.5387V40.3706Z" fill="#F2F2F2"/>
<path id="Vector_29" d="M90.5387 45.29H77.8387V55.1285H90.5387V45.29Z" fill="#FFC300"/>
<path id="Vector_30" d="M90.5387 55.1285H77.8387V65.7869H90.5387V55.1285Z" fill="#5C0C87"/>
</g>
</g>
</g>
<g id="Clip path group_7">
<mask id="mask6_2_164" style="mask-type:luminance" maskUnits="userSpaceOnUse" x="93" y="45" width="14" height="21">
<g id="clip6_702_1320">
<path id="Vector_31" d="M104.058 45.6998H95.4548C94.3235 45.6998 93.4064 46.6175 93.4064 47.7495V63.7371C93.4064 64.8691 94.3235 65.7868 95.4548 65.7868H104.058C105.189 65.7868 106.106 64.8691 106.106 63.7371V47.7495C106.106 46.6175 105.189 45.6998 104.058 45.6998Z" fill="white"/>
</g>
</mask>
<g mask="url(#mask6_2_164)">
<g id="Group_7">
<path id="Vector_32" d="M104.058 45.6998H95.4548C94.3235 45.6998 93.4064 46.6175 93.4064 47.7495V63.7371C93.4064 64.8691 94.3235 65.7868 95.4548 65.7868H104.058C105.189 65.7868 106.106 64.8691 106.106 63.7371V47.7495C106.106 46.6175 105.189 45.6998 104.058 45.6998Z" fill="#F3F3F3"/>
<path id="Vector_33" d="M106.106 45.6998H93.4064V54.3085H106.106V45.6998Z" fill="#F2F2F2"/>
<path id="Vector_34" d="M106.106 54.3085H93.4064V59.2277H106.106V54.3085Z" fill="#FFC300"/>
<path id="Vector_35" d="M106.106 59.2278H93.4064V65.7868H106.106V59.2278Z" fill="#5C0C87"/>
</g>
</g>
</g>
<g id="Clip path group_8">
<mask id="mask7_2_164" style="mask-type:luminance" maskUnits="userSpaceOnUse" x="108" y="38" width="14" height="28">
<g id="clip7_702_1320">
<path id="Vector_36" d="M119.626 38.7308H111.023C109.891 38.7308 108.974 39.6485 108.974 40.7805V63.737C108.974 64.8691 109.891 65.7867 111.023 65.7867H119.626C120.757 65.7867 121.674 64.8691 121.674 63.737V40.7805C121.674 39.6485 120.757 38.7308 119.626 38.7308Z" fill="white"/>
</g>
</mask>
<g mask="url(#mask7_2_164)">
<g id="Group_8">
<path id="Vector_37" d="M119.626 38.7308H111.023C109.891 38.7308 108.974 39.6485 108.974 40.7805V63.737C108.974 64.8691 109.891 65.7867 111.023 65.7867H119.626C120.757 65.7867 121.674 64.8691 121.674 63.737V40.7805C121.674 39.6485 120.757 38.7308 119.626 38.7308Z" fill="#F3F3F3"/>
<path id="Vector_38" d="M121.674 38.7308H108.974V58.8178H121.674V38.7308Z" fill="#F2F2F2"/>
<path id="Vector_39" d="M121.674 58.8179H108.974V62.0974H121.674V58.8179Z" fill="#FFC300"/>
<path id="Vector_40" d="M121.674 62.0974H108.974V65.7869H121.674V62.0974Z" fill="#5C0C87"/>
</g>
</g>
</g>
</g>
</svg>
