<svg width="104" height="105" viewBox="0 0 104 105" fill="none" xmlns="http://www.w3.org/2000/svg">
<g clip-path="url(#clip0_66_5738)">
<path opacity="0.1" d="M70.4969 86.3504C77.8268 82.0965 83.471 73.8406 86.6171 65.9424C89.763 58.0441 90.1774 49.3125 87.7937 41.1493C85.4097 32.9857 80.3659 25.8646 73.4721 20.9288C66.5783 15.9929 58.2343 13.5289 49.78 13.9324C41.3258 14.3358 33.2516 17.5832 26.8538 23.1533C20.4562 28.7233 16.1062 36.293 14.5024 44.6465C12.8986 53.0002 14.1339 61.653 18.0101 69.2163C21.8863 76.7792 28.1785 82.8138 35.8764 86.3504" stroke="url(#paint0_linear_66_5738)" stroke-width="5" stroke-linecap="round"/>
<g filter="url(#filter0_d_66_5738)">
<path d="M87.8375 41.3321C85.4536 33.1688 80.6966 25.8646 73.8026 20.9287C66.9088 15.9929 58.565 13.5289 50.1105 13.9324C41.6563 14.3358 33.5821 17.5833 27.1845 23.1533C20.7867 28.7233 16.4368 36.293 14.8329 44.6465C13.2291 53.0002 14.4645 61.653 18.3407 69.2163C22.2169 76.7793 28.509 82.8138 36.2068 86.3504" stroke="#5C0C87" stroke-width="8" stroke-linecap="round"/>
</g>
<g filter="url(#filter1_d_66_5738)">
<path d="M87.7227 42.1382C88.1655 42.1382 88.5244 41.7774 88.5244 41.3323C88.5244 40.8872 88.1655 40.5264 87.7227 40.5264C87.2799 40.5264 86.9209 40.8872 86.9209 41.3323C86.9209 41.7774 87.2799 42.1382 87.7227 42.1382Z" fill="#00152E"/>
</g>
<path d="M44.9321 43.959H46.0305C46.6479 43.959 47.0662 44.3661 47.0662 44.9687C47.0662 45.5713 46.6435 45.9807 46.0283 45.9807H45.2363V47.2039H44.9321V43.959ZM45.2363 44.2335V45.7062H45.9588C46.4555 45.7062 46.753 45.4297 46.753 44.9687C46.753 44.5077 46.4578 44.2335 45.9588 44.2335H45.2363ZM49.3503 44.8653V47.2039H49.0706V46.7698H49.064C48.9409 47.0576 48.6612 47.2421 48.2922 47.2421C47.7866 47.2421 47.4712 46.9114 47.4712 46.3853V44.8653H47.7688V46.3337C47.7688 46.7475 47.988 46.9768 48.3772 46.9768C48.7822 46.9768 49.055 46.6911 49.055 46.2526V44.8653H49.3503ZM49.8604 47.2039V44.8653H50.1399V45.297H50.1468C50.2652 45.0136 50.5383 44.8271 50.914 44.8271C51.4241 44.8271 51.7373 45.1575 51.7373 45.6883V47.2039H51.442V45.7355C51.442 45.3263 51.2182 45.0923 50.829 45.0923C50.4263 45.0923 50.1557 45.3848 50.1557 45.8186V47.2039H49.8604ZM52.3635 44.2807H52.6588V44.8653H53.1174V45.1126H52.6588V46.6146C52.6588 46.8552 52.753 46.9589 52.9676 46.9589C52.999 46.9589 53.1108 46.9542 53.1287 46.9496V47.2039C53.0975 47.2105 52.9722 47.2174 52.9094 47.2174C52.5202 47.2174 52.3635 47.051 52.3635 46.6282V45.1126H52.017V44.8653H52.3635V44.2807ZM54.2204 46.9858C54.6275 46.9858 54.9475 46.6957 54.9475 46.3247V46.0661L54.2585 46.1133C53.8915 46.138 53.6881 46.2975 53.6881 46.5564C53.6881 46.8103 53.905 46.9858 54.2204 46.9858ZM54.16 47.2421C53.7013 47.2421 53.3882 46.9655 53.3882 46.5564C53.3882 46.1559 53.6858 45.9132 54.2227 45.8771L54.9475 45.8322V45.6298C54.9475 45.2924 54.7349 45.09 54.3725 45.09C54.0303 45.09 53.8111 45.2588 53.7595 45.542H53.4732C53.5069 45.1239 53.8491 44.8271 54.3792 44.8271C54.9095 44.8271 55.2428 45.1262 55.2428 45.6028V47.2039H54.9608V46.7585H54.9542C54.8245 47.0487 54.5068 47.2421 54.16 47.2421ZM56.0549 44.8653V47.3524C56.0549 47.8065 55.84 48.0022 55.386 48.0022C55.3791 48.0022 55.3166 48.0022 55.3143 47.9999V47.748C55.3166 47.748 55.3724 47.748 55.3747 47.748C55.6499 47.748 55.7596 47.6402 55.7596 47.3567V44.8653H56.0549ZM55.9071 44.393C55.7997 44.393 55.7103 44.3053 55.7103 44.1952C55.7103 44.0872 55.7997 43.9995 55.9071 43.9995C56.0168 43.9995 56.1062 44.0872 56.1062 44.1952C56.1062 44.3053 56.0168 44.393 55.9071 44.393ZM57.5044 45.088C57.0882 45.088 56.7998 45.4094 56.7751 45.8704H58.2114C58.2045 45.4094 57.925 45.088 57.5044 45.088ZM58.1935 46.5405H58.4865C58.4171 46.9453 58.0391 47.2421 57.5267 47.2421C56.8736 47.2421 56.4686 46.7834 56.4686 46.0413C56.4686 45.315 56.8779 44.8271 57.5088 44.8271C58.1264 44.8271 58.5156 45.2835 58.5156 45.9807V46.1064H56.7728V46.1244C56.7728 46.6528 57.0703 46.9812 57.5335 46.9812C57.8847 46.9812 58.1284 46.7967 58.1935 46.5405Z" fill="#00152E"/>
<path d="M36.918 64L42.376 53.4795V53.4268H35.9248V51.3174H44.9951V53.4531L39.7041 64H36.918ZM51.4375 64.2812C48.7129 64.2812 46.7529 62.6641 46.6738 60.3701H49.126C49.2754 61.4424 50.2246 62.1807 51.4551 62.1807C52.8438 62.1807 53.8018 61.2139 53.8018 59.834C53.8018 58.4277 52.8438 57.4434 51.4727 57.4434C50.5146 57.4434 49.6885 57.8828 49.249 58.6123H46.876L47.5 51.3174H55.5684V53.4268H49.583L49.293 56.8984H49.3457C49.8643 56.0459 50.875 55.5098 52.167 55.5098C54.5928 55.5098 56.333 57.2939 56.333 59.7637C56.333 62.4531 54.3467 64.2812 51.4375 64.2812ZM62.7754 64.2812C59.585 64.2812 57.6426 61.7412 57.6426 57.6367C57.6426 53.541 59.6025 51.0273 62.7754 51.0273C65.9482 51.0273 67.8994 53.5322 67.8994 57.6279C67.8994 61.7236 65.9658 64.2812 62.7754 64.2812ZM62.7754 62.1543C64.2871 62.1543 65.2012 60.5283 65.2012 57.6367C65.2012 54.7715 64.2783 53.1543 62.7754 53.1543C61.2812 53.1543 60.3408 54.7803 60.3408 57.6367C60.3408 60.5195 61.2637 62.1543 62.7754 62.1543Z" fill="black"/>
</g>
<defs>
<filter id="filter0_d_66_5738" x="-4.85107" y="-0.110352" width="111.689" height="110.462" filterUnits="userSpaceOnUse" color-interpolation-filters="sRGB">
<feFlood flood-opacity="0" result="BackgroundImageFix"/>
<feColorMatrix in="SourceAlpha" type="matrix" values="0 0 0 0 0 0 0 0 0 0 0 0 0 0 0 0 0 0 127 0" result="hardAlpha"/>
<feOffset dy="5"/>
<feGaussianBlur stdDeviation="7.5"/>
<feColorMatrix type="matrix" values="0 0 0 0 0.505882 0 0 0 0 0.831373 0 0 0 0 0.996078 0 0 0 0.2 0"/>
<feBlend mode="normal" in2="BackgroundImageFix" result="effect1_dropShadow_66_5738"/>
<feBlend mode="normal" in="SourceGraphic" in2="effect1_dropShadow_66_5738" result="shape"/>
</filter>
<filter id="filter1_d_66_5738" x="85.9209" y="39.5264" width="3.60352" height="3.61182" filterUnits="userSpaceOnUse" color-interpolation-filters="sRGB">
<feFlood flood-opacity="0" result="BackgroundImageFix"/>
<feColorMatrix in="SourceAlpha" type="matrix" values="0 0 0 0 0 0 0 0 0 0 0 0 0 0 0 0 0 0 127 0" result="hardAlpha"/>
<feOffset/>
<feGaussianBlur stdDeviation="0.5"/>
<feColorMatrix type="matrix" values="0 0 0 0 0 0 0 0 0 0 0 0 0 0 0 0 0 0 0.15 0"/>
<feBlend mode="normal" in2="BackgroundImageFix" result="effect1_dropShadow_66_5738"/>
<feBlend mode="normal" in="SourceGraphic" in2="effect1_dropShadow_66_5738" result="shape"/>
</filter>
<linearGradient id="paint0_linear_66_5738" x1="84.6258" y1="33.493" x2="19.0691" y2="71.1469" gradientUnits="userSpaceOnUse">
<stop stop-color="#7AD3FF"/>
<stop offset="1" stop-color="#4FBAF0"/>
</linearGradient>
<clipPath id="clip0_66_5738">
<rect width="104" height="105" fill="white"/>
</clipPath>
</defs>
</svg>
