<svg width="159" height="81" viewBox="0 0 159 81" fill="none" xmlns="http://www.w3.org/2000/svg">
<g id="Frame" clip-path="url(#clip0_2_242)">
<path id="Vector" d="M88.4794 0H70.0827C66.4541 0 63.5125 2.92459 63.5125 6.53226C63.5125 10.1399 66.4541 13.0645 70.0827 13.0645H88.4794C92.108 13.0645 95.0496 10.1399 95.0496 6.53226C95.0496 2.92459 92.108 0 88.4794 0Z" fill="#5C0C87"/>
<path id="Vector_2" d="M73.5846 6.20476V6.84527H71.0231V6.20476H73.5846ZM72.6551 5.19688V7.90162H71.9547V5.19688H72.6551ZM76.4514 7.70004V8.27418H73.8951V7.78426L75.1041 6.49566C75.2254 6.36127 75.3213 6.24304 75.3914 6.141C75.4615 6.03723 75.5119 5.94451 75.5425 5.86286C75.5754 5.77951 75.5916 5.70038 75.5916 5.62557C75.5916 5.5133 75.5727 5.41719 75.5351 5.33723C75.4974 5.25558 75.4418 5.19261 75.3682 5.14841C75.2964 5.10416 75.2074 5.08204 75.1014 5.08204C74.9884 5.08204 74.8908 5.10926 74.8088 5.16369C74.7282 5.21813 74.6665 5.29381 74.624 5.3908C74.5828 5.48778 74.5622 5.59748 74.5622 5.71998H73.8207C73.8207 5.49884 73.8737 5.29638 73.9797 5.11265C74.0857 4.92727 74.2355 4.78012 74.4291 4.67125C74.6223 4.56068 74.8513 4.50537 75.1168 4.50537C75.3783 4.50537 75.599 4.54792 75.7791 4.63297C75.9604 4.71632 76.0971 4.83708 76.1895 4.99529C76.2836 5.1518 76.3305 5.33893 76.3305 5.55667C76.3305 5.67913 76.3108 5.79906 76.2718 5.91643C76.2324 6.03213 76.1759 6.1478 76.1023 6.26346C76.0305 6.37743 75.9433 6.49314 75.8404 6.6105C75.7379 6.72786 75.624 6.84949 75.4992 6.97539L74.8496 7.70004H76.4514ZM76.875 7.91948C76.875 7.81061 76.9126 7.71963 76.988 7.64647C77.0646 7.57331 77.1667 7.53673 77.2933 7.53673C77.4199 7.53673 77.5206 7.57331 77.5959 7.64647C77.673 7.71963 77.7116 7.81061 77.7116 7.91948C77.7116 8.02835 77.673 8.11936 77.5959 8.19253C77.5206 8.26569 77.4199 8.30227 77.2933 8.30227C77.1667 8.30227 77.0646 8.26569 76.988 8.19253C76.9126 8.11936 76.875 8.02835 76.875 7.91948ZM80.8452 6.88607V7.46274H78.1531L78.1172 7.0162L79.6752 4.55898H80.2626L79.6262 5.6179L78.8513 6.88607H80.8452ZM80.422 4.55898V8.27418H79.6827V4.55898H80.422ZM81.8359 6.58241L81.2459 6.4421L81.4588 4.55898H83.5582V5.1535H82.0672L81.9748 5.9777C82.0243 5.94878 82.0996 5.91812 82.2004 5.88581C82.3016 5.8518 82.4146 5.83477 82.5394 5.83477C82.7207 5.83477 82.8815 5.86286 83.0217 5.91899C83.1623 5.97513 83.281 6.05678 83.3786 6.16395C83.4776 6.27113 83.553 6.40212 83.6042 6.55689C83.6559 6.71171 83.6813 6.88695 83.6813 7.08256C83.6813 7.24757 83.6559 7.40491 83.6042 7.55463C83.553 7.70261 83.4754 7.8353 83.3708 7.95266C83.2665 8.06833 83.1355 8.15934 82.9783 8.22571C82.8206 8.29203 82.6344 8.32522 82.4185 8.32522C82.2578 8.32522 82.1023 8.3014 81.9516 8.25375C81.8027 8.20616 81.6686 8.13552 81.5486 8.04198C81.4308 7.94844 81.3357 7.8353 81.2639 7.70261C81.1938 7.56822 81.157 7.4151 81.1535 7.2433H81.8876C81.8977 7.34878 81.9249 7.43979 81.9695 7.51635C82.016 7.59117 82.0764 7.64904 82.1518 7.68985C82.2271 7.73069 82.3151 7.75108 82.4163 7.75108C82.5101 7.75108 82.5906 7.73322 82.6572 7.69751C82.7242 7.6618 82.7781 7.61246 82.8193 7.54949C82.86 7.48486 82.8903 7.41 82.9091 7.32495C82.9292 7.23821 82.9397 7.14462 82.9397 7.04429C82.9397 6.94391 82.9279 6.85289 82.9038 6.77124C82.8797 6.68958 82.8429 6.61899 82.7934 6.55946C82.744 6.49993 82.6804 6.45399 82.6034 6.42167C82.528 6.38936 82.44 6.3732 82.3392 6.3732C82.2021 6.3732 82.0961 6.39446 82.0208 6.43696C81.9472 6.47951 81.8859 6.52798 81.8359 6.58241ZM84.0435 5.46988V5.27343C84.0435 5.13225 84.0742 5.00378 84.136 4.88812C84.1973 4.77245 84.288 4.67974 84.408 4.60997C84.5276 4.54025 84.6747 4.50537 84.8491 4.50537C85.0291 4.50537 85.1785 4.54025 85.2985 4.60997C85.4198 4.67974 85.5105 4.77245 85.5705 4.88812C85.6322 5.00378 85.6629 5.13225 85.6629 5.27343V5.46988C85.6629 5.60771 85.6322 5.73444 85.5705 5.8501C85.5105 5.96577 85.4207 6.05848 85.3011 6.12825C85.1811 6.19797 85.0322 6.23285 84.8543 6.23285C84.6782 6.23285 84.5293 6.19797 84.408 6.12825C84.288 6.05848 84.1973 5.96577 84.136 5.8501C84.0742 5.73444 84.0435 5.60771 84.0435 5.46988ZM84.5337 5.27343V5.46988C84.5337 5.52945 84.5446 5.58642 84.567 5.64085C84.5911 5.69359 84.627 5.73696 84.6747 5.77102C84.7242 5.80333 84.7842 5.81949 84.8543 5.81949C84.9279 5.81949 84.9879 5.80333 85.0339 5.77102C85.0803 5.73696 85.1145 5.69359 85.1368 5.64085C85.1592 5.58642 85.1701 5.52945 85.1701 5.46988V5.27343C85.1701 5.21046 85.1583 5.15263 85.1342 5.09989C85.1119 5.04546 85.0768 5.00208 85.0291 4.96977C84.9827 4.93576 84.9227 4.91873 84.8491 4.91873C84.7807 4.91873 84.7225 4.93576 84.6747 4.96977C84.627 5.00208 84.5911 5.04546 84.567 5.09989C84.5446 5.15263 84.5337 5.21046 84.5337 5.27343ZM85.8298 7.55972V7.36323C85.8298 7.22375 85.8604 7.09615 85.9222 6.98049C85.9853 6.86482 86.0768 6.77211 86.1968 6.70234C86.3182 6.63262 86.4671 6.59774 86.6432 6.59774C86.821 6.59774 86.9699 6.63262 87.09 6.70234C87.2095 6.77211 87.3002 6.86482 87.362 6.98049C87.4233 7.09615 87.4544 7.22375 87.4544 7.36323V7.55972C87.4544 7.69921 87.4233 7.82681 87.362 7.94247C87.302 8.05814 87.2122 8.15085 87.0926 8.22061C86.9726 8.29034 86.8245 8.32522 86.6484 8.32522C86.4706 8.32522 86.3208 8.29034 86.1995 8.22061C86.0777 8.15085 85.9853 8.05814 85.9222 7.94247C85.8604 7.82681 85.8298 7.69921 85.8298 7.55972ZM86.3226 7.36323V7.55972C86.3226 7.62095 86.3361 7.67878 86.3637 7.73322C86.3909 7.78766 86.4286 7.83103 86.4763 7.86334C86.5262 7.8957 86.5832 7.91186 86.6484 7.91186C86.7303 7.91186 86.7947 7.8957 86.8407 7.86334C86.8872 7.83103 86.9187 7.78766 86.9358 7.73322C86.9546 7.67878 86.9642 7.62095 86.9642 7.55972V7.36323C86.9642 7.302 86.952 7.245 86.9283 7.19226C86.9042 7.13783 86.8683 7.09445 86.8201 7.06214C86.7741 7.02813 86.715 7.0111 86.6432 7.0111C86.5713 7.0111 86.5113 7.02813 86.4636 7.06214C86.4176 7.09445 86.3821 7.13783 86.3585 7.19226C86.3344 7.245 86.3226 7.302 86.3226 7.36323ZM86.8254 5.0897L85.0006 7.99351L84.6414 7.80468L86.4662 4.90088L86.8254 5.0897Z" fill="white"/>
<path id="Vector_3" d="M18.9374 46.4727L0.437988 38.3871V81H158.124V23.3087L155.922 22.6531L144.029 35.9833L139.184 34.6721L124.208 47.1281L122.446 48.2207L107.251 33.5795L102.625 35.9833L94.2567 22.6531H92.7149L83.0247 33.5795H81.9239L75.3169 41.8835L67.6087 51.7172L65.6267 53.0285L61.222 48.0021L51.9724 22.216L49.77 20.4678L46.2462 22.216L39.8595 36.4203L37.4369 38.3871L32.5918 35.3277L28.1872 36.4203L18.9374 46.4727Z" fill="url(#paint0_linear_2_242)"/>
<path id="Vector_4" d="M0.437988 38.4191L17.4878 45.8934C18.7294 46.4378 20.1868 45.9601 20.9317 44.8326C23.6121 40.775 30.0894 32.3978 35.381 36.9049C42.2369 42.7445 42.6366 18.9451 50.6408 20.6843C54.6219 21.5492 55.4603 32.6323 59.045 41.8794C61.5527 48.3483 62.7314 51.8125 65.6989 52.5455C66.504 52.7445 67.299 52.3038 67.7948 51.6423L81.1294 33.8602C81.3957 33.5053 81.8937 33.4178 82.266 33.6605C82.6388 33.9036 83.1377 33.8155 83.4036 33.4595L90.6777 23.7166C91.8152 22.1931 94.1551 22.3449 95.0837 24.0024L100.717 34.0558C101.405 35.2839 102.947 35.7506 104.207 35.1119L106.155 34.1237C107.201 33.5938 108.472 33.8166 109.272 34.6699L120.776 46.9425C121.746 47.9772 123.367 48.0569 124.435 47.1228L138.033 35.2242C138.818 34.5375 139.937 34.3786 140.884 34.8195L142.069 35.371C143.181 35.8888 144.505 35.5722 145.259 34.6086L153.815 23.6662C154.722 22.506 156.413 22.3176 157.556 23.2491L158.124 23.7122" stroke="#5C0C87" stroke-width="4"/>
</g>
<defs>
<linearGradient id="paint0_linear_2_242" x1="79.281" y1="20.4678" x2="79.281" y2="81" gradientUnits="userSpaceOnUse">
<stop stop-color="#0B3DEF" stop-opacity="0.34"/>
<stop offset="1" stop-color="white" stop-opacity="0.08"/>
</linearGradient>
<clipPath id="clip0_2_242">
<rect width="159" height="81" fill="white"/>
</clipPath>
</defs>
</svg>
