<svg width="117" height="32" viewBox="0 0 117 32" fill="none" xmlns="http://www.w3.org/2000/svg">
<path d="M5.54995 18.4682C5.66257 18.7344 5.62503 19.1128 5.58749 19.3029C5.47487 19.6832 5.24962 20.0616 4.46314 20.0616C3.75173 20.0616 3.33878 19.6433 3.33878 19.0367V17.9357H0.303589V18.8085C0.303589 21.3908 2.28951 22.1494 4.4256 22.1494C6.56168 22.1494 8.17407 21.4288 8.43498 19.5292C8.58514 18.5423 8.47252 17.8977 8.43498 17.6315C7.94695 15.2394 3.63723 14.5188 3.33878 13.1516C3.30124 12.9234 3.30124 12.6952 3.33878 12.545C3.41386 12.1647 3.67665 11.7863 4.38806 11.7863C5.06192 11.7863 5.43733 12.2046 5.43733 12.8112V13.5319H8.24727V12.7352C8.24727 10.229 6.03611 9.85059 4.42372 9.85059C2.40026 9.85059 0.750327 10.5332 0.451876 12.3948C0.376794 12.8892 0.376794 13.3436 0.489417 13.9521C0.93991 16.3423 4.98684 16.9888 5.54807 18.4701" fill="#E6F0ED"/>
<path d="M11.5109 21.733L13.6094 10.267H18.6324L20.7309 21.733H17.6939L16.1584 11.2919H16.1209L14.5461 21.733H11.5109Z" fill="#E6F0ED"/>
<path d="M36.097 10.267L36.3598 21.733H33.5123L33.4372 11.406H33.3621L31.4888 21.733H28.6019L26.7286 11.406H26.6535L26.5784 21.733H23.731L23.9919 10.267H28.6394L30.0266 19.0367H30.0641L31.4888 10.267H36.097Z" fill="#E6F0ED"/>
<path d="M44.531 18.4111C44.6436 18.6773 44.6061 19.0176 44.5686 19.2458C44.4935 19.6261 44.2307 20.0045 43.4817 20.0045C42.7328 20.0045 42.3574 19.5862 42.3574 18.9796V17.8786H39.3597V18.7514C39.3597 21.2956 41.3457 22.0543 43.4442 22.0543C45.5427 22.0543 47.1551 21.3698 47.416 19.4721C47.5662 18.4852 47.4536 17.8406 47.416 17.6124C46.928 15.2204 42.6934 14.5377 42.3949 13.2086C42.3199 12.9804 42.3574 12.7522 42.3949 12.602C42.47 12.2217 42.7328 11.8433 43.4067 11.8433C44.0805 11.8433 44.4559 12.2616 44.4559 12.8682V13.5889H47.2659V12.7922C47.2659 10.324 45.0547 9.94562 43.4799 9.94562C41.4939 9.94562 39.844 10.5902 39.5456 12.4518C39.4705 12.9462 39.4329 13.4006 39.5831 13.9711C39.9942 16.2871 43.9679 16.9317 44.5291 18.413" fill="#E6F0ED"/>
<path d="M54.4657 19.7964C55.2521 19.7964 55.5149 19.2639 55.5525 18.9616C55.59 18.8475 55.59 18.6574 55.59 18.5071V10.0778H58.475V18.317C58.475 18.5452 58.4375 18.9616 58.4375 19.0757C58.2498 21.2016 56.5642 21.9222 54.4638 21.9222C52.3634 21.9222 50.7153 21.2377 50.5295 19.0757C50.5295 18.9616 50.4919 18.5433 50.4919 18.317V10.0778H53.377V18.5813C53.377 18.7334 53.377 18.8855 53.4145 19.0377C53.4521 19.2658 53.6773 19.7964 54.4638 19.7964" fill="#E6F0ED"/>
<path d="M70.9936 10.324V21.676H66.9466L64.1742 12.3358H64.0992L64.2493 21.676H61.475V10.324H65.6721L68.2962 19.3219H68.3338L68.1836 10.324H70.9936Z" fill="#E6F0ED"/>
<path d="M78.0048 19.9304C78.8288 19.9304 79.0916 19.3979 79.1667 19.0956C79.2042 18.9815 79.2042 18.7914 79.2042 18.6773V17.0078H78.0423V15.3363H82.0517V18.4111C82.0517 18.6392 82.0517 18.7914 82.0142 19.1698C81.8265 21.2576 80.0283 22.0163 78.0048 22.0163C75.9813 22.0163 74.2188 21.2576 74.0311 19.1698C73.9935 18.7895 73.9935 18.6373 73.9935 18.4111V13.5889C73.9935 13.3987 74.0311 13.0203 74.0311 12.8302C74.2939 10.6663 75.9795 9.98364 78.0048 9.98364C80.0301 9.98364 81.7908 10.6663 81.9766 12.8302C82.0142 13.1724 82.0142 13.5889 82.0142 13.5889V13.9692H79.1667V13.3246C79.1667 13.3246 79.1667 13.0584 79.1291 12.8682C79.0916 12.602 78.8664 12.0335 78.0048 12.0335C77.1432 12.0335 76.9555 12.602 76.8804 12.8682C76.8429 13.0203 76.8429 13.2105 76.8429 13.4006V18.6392C76.8429 18.7914 76.8429 18.9435 76.8804 19.0576C76.8804 19.4379 77.1808 19.9304 78.0048 19.9304Z" fill="#E6F0ED"/>
<path d="M116.391 11.2158C116.015 8.25522 114.966 5.5589 113.13 3.58515C111.182 1.72549 108.52 0.662552 105.598 0.282253C102.788 -0.0980458 100.875 0.0160439 100.875 0.0160439C100.875 0.0160439 98.9641 -0.0600159 96.1522 0.282253C93.2297 0.662552 90.568 1.72549 88.6196 3.58515C86.7839 5.5589 85.7346 8.25522 85.3592 11.2158C84.9838 14.0624 85.0589 16 85.0589 16C85.0589 16 84.9838 17.9357 85.3217 20.7842C85.6971 23.7448 86.7463 26.4411 88.5821 28.4149C90.5305 30.2745 93.1921 31.3375 96.1147 31.7178C98.9246 32.098 100.837 31.984 100.837 31.984C100.837 31.984 102.748 32.06 105.56 31.7178C108.483 31.3375 111.144 30.2745 113.093 28.4149C114.928 26.4411 115.978 23.7448 116.353 20.7842C116.728 17.9376 116.616 16 116.616 16C116.616 16 116.766 14.0643 116.391 11.2158Z" fill="#E6F0ED"/>
<path d="M90.9344 11.3299H93.7743C94.2236 11.3299 94.5962 11.406 94.9706 11.5581C95.345 11.7102 95.6427 11.9384 95.9048 12.2027C96.1669 12.467 96.3915 12.7712 96.5394 13.1515C96.6892 13.5318 96.7641 13.9102 96.7641 14.3286C96.7641 14.7469 96.6892 15.1253 96.5394 15.5056C96.3896 15.8859 96.165 16.1901 95.9048 16.4544C95.6446 16.7187 95.3076 16.9488 94.9706 17.099C94.6336 17.2512 94.2236 17.3272 93.7743 17.3272H92.5032V19.7193H90.9699V11.328H90.9325L90.9344 11.3299ZM92.4676 12.7731V15.8479H93.6639C93.8885 15.8479 94.1132 15.8098 94.2985 15.7338C94.4839 15.6577 94.6355 15.5436 94.7853 15.3915C94.935 15.2394 95.0099 15.0873 95.0848 14.8971C95.1597 14.707 95.1971 14.5168 95.1971 14.2905C95.1971 14.0643 95.1597 13.8722 95.0848 13.684C95.0099 13.4938 94.8976 13.3417 94.7853 13.1896C94.6355 13.0374 94.4857 12.9234 94.2985 12.8473C94.1113 12.7712 93.8867 12.7332 93.6639 12.7332H92.4676V12.7712V12.7731ZM100.317 19.7212C99.9054 19.7212 99.5329 19.6451 99.121 19.493C98.7466 19.3409 98.3741 19.1127 98.0745 18.8484C97.775 18.5442 97.5148 18.2019 97.3276 17.7855C97.1404 17.369 97.028 16.8747 97.028 16.3422C97.028 15.8098 97.1029 15.3173 97.2901 14.899C97.4773 14.4807 97.7394 14.1403 98.0371 13.8361C98.3348 13.5318 98.7092 13.3417 99.0836 13.1915C99.4955 13.0393 99.868 12.9633 100.317 12.9633C100.767 12.9633 101.177 13.0393 101.514 13.1915C101.888 13.3436 102.186 13.5718 102.448 13.8361V12.9633H103.981V19.7212H102.448V18.7724C102.223 19.0766 101.888 19.3048 101.514 19.493C101.139 19.6451 100.767 19.7212 100.317 19.7212ZM100.579 18.316C100.879 18.316 101.139 18.278 101.364 18.1639C101.588 18.0498 101.813 17.9357 101.998 17.7455C102.184 17.5554 102.298 17.3652 102.41 17.139C102.523 16.9108 102.56 16.6446 102.56 16.3803C102.56 16.116 102.523 15.8479 102.41 15.6216C102.298 15.3934 102.186 15.1652 101.998 15.015C101.811 14.8249 101.624 14.7108 101.364 14.5967C101.102 14.4446 100.84 14.4065 100.579 14.4065C100.319 14.4065 100.055 14.4446 99.795 14.5586C99.5329 14.6727 99.3457 14.7868 99.1603 14.977C98.975 15.1671 98.8234 15.3573 98.7485 15.5835C98.6362 15.8117 98.5987 16.0779 98.5987 16.3422C98.5987 16.6066 98.6362 16.8728 98.7485 17.1009C98.8608 17.3291 99.0106 17.5573 99.1603 17.7474C99.3476 17.9376 99.5722 18.0517 99.795 18.1658C100.02 18.2418 100.282 18.3179 100.579 18.3179M106.111 13.0032L107.98 17.5972L109.698 13.0032H111.306L107.383 22.7978H105.812L107.195 19.4189L104.503 13.0032H106.111Z" fill="#00152E"/>
</svg>
