<svg width="125" height="24" viewBox="0 0 125 24" fill="none" xmlns="http://www.w3.org/2000/svg">
<g clip-path="url(#clip0_2_388)">
<mask id="mask0_2_388" style="mask-type:luminance" maskUnits="userSpaceOnUse" x="0" y="0" width="125" height="24">
<path d="M124.118 0H0.277832V24H124.118V0Z" fill="white"/>
</mask>
<g mask="url(#mask0_2_388)">
<path fill-rule="evenodd" clip-rule="evenodd" d="M49.144 18.7728C44.5678 22.184 37.9323 23.9986 32.2185 23.9986C24.2118 23.9986 17.0007 21.009 11.5431 16.0311C11.1152 15.6395 11.4962 15.1069 12.0114 15.4091C17.8983 18.8704 25.1791 20.9547 32.6988 20.9547C37.7713 20.9547 43.347 19.8909 48.4786 17.6927C49.2527 17.362 49.902 18.2077 49.144 18.7728Z" fill="#E6F0ED"/>
<path fill-rule="evenodd" clip-rule="evenodd" d="M51.0488 16.576C50.4625 15.8184 47.1797 16.2169 45.7039 16.3958C45.2571 16.45 45.1874 16.0556 45.5899 15.7696C48.21 13.9102 52.5031 14.4469 53.0008 15.0703C53.5026 15.6978 52.868 20.0454 50.4142 22.1203C50.0359 22.4388 49.6764 22.2694 49.8441 21.8479C50.3968 20.4534 51.6338 17.3336 51.0475 16.576H51.0488Z" fill="#E6F0ED"/>
<path fill-rule="evenodd" clip-rule="evenodd" d="M45.8089 2.63806V0.832877C45.8102 0.557762 46.0155 0.374804 46.2624 0.37616H54.2757C54.532 0.37616 54.7386 0.563183 54.7386 0.831521V2.38056C54.7359 2.64077 54.5185 2.97958 54.1348 3.51761L49.9839 9.50508C51.5241 9.46849 53.1541 9.70159 54.5548 10.4971C54.87 10.676 54.9559 10.9416 54.98 11.2018V13.129C54.98 13.3946 54.6929 13.7023 54.3897 13.5423C51.9239 12.2372 48.6504 12.0949 45.9229 13.5586C45.6439 13.709 45.3528 13.4055 45.3528 13.1398V11.3076C45.3528 11.0148 45.3581 10.5134 45.6506 10.0661L50.4589 3.09613H46.2717C46.0155 3.09613 45.8102 2.91182 45.8089 2.64077V2.63806ZM16.5782 13.9191H14.1405C13.9084 13.9042 13.7233 13.728 13.7045 13.503L13.7072 0.862692C13.7072 0.610617 13.9178 0.408686 14.1781 0.408686H16.4481C16.6855 0.419528 16.8761 0.60113 16.8908 0.832877V2.48221H16.9378C17.5294 0.885731 18.6443 0.141703 20.1455 0.141703C21.6468 0.141703 22.6261 0.887086 23.309 2.48221C23.9006 0.885731 25.2436 0.141703 26.6764 0.141703C27.7014 0.141703 28.8149 0.567249 29.4978 1.52541C30.2719 2.58927 30.1136 4.13154 30.1136 5.48814L30.1109 13.4651C30.1109 13.7172 29.9016 13.9191 29.6413 13.9191H27.2063C26.9608 13.9028 26.769 13.7077 26.769 13.4651V6.76478C26.769 6.23352 26.8132 4.90403 26.6992 4.39852C26.5181 3.54607 25.9721 3.30755 25.2664 3.30755C24.6747 3.30755 24.0603 3.70599 23.8094 4.34431C23.5585 4.98399 23.5827 6.0465 23.5827 6.76478V13.4651C23.5827 13.7172 23.3721 13.9191 23.1131 13.9191H20.6781C20.4326 13.9028 20.2408 13.7077 20.2408 13.4651L20.2381 6.76478C20.2381 5.35532 20.4662 3.2818 18.7368 3.2818C17.0075 3.2818 17.0531 5.30247 17.0531 6.76478V13.4651C17.0518 13.7172 16.8412 13.9191 16.5822 13.9191H16.5782ZM61.6572 2.72209C59.8594 2.72209 59.7454 5.1954 59.7454 6.73767C59.7454 8.27994 59.7226 11.5786 61.6344 11.5786C63.5461 11.5786 63.6146 8.91826 63.6146 7.29603C63.6146 6.23217 63.5676 4.95553 63.2496 3.94452C62.9773 3.06632 62.4299 2.72073 61.6558 2.72073L61.6572 2.72209ZM61.6357 0.141703C65.254 0.141703 67.21 3.2818 67.21 7.27028C67.21 11.2588 65.0487 14.1847 61.6357 14.1847C58.2227 14.1847 56.1513 11.046 56.1513 7.13611C56.1513 3.22624 58.1073 0.141703 61.6357 0.141703ZM71.9029 13.9191H69.4733C69.2305 13.9028 69.0359 13.7077 69.0359 13.4651L69.0319 0.820679C69.0534 0.588933 69.2546 0.408686 69.5001 0.408686H71.7607C71.974 0.419528 72.1498 0.565894 72.1941 0.761049V2.69498H72.2397C72.9225 0.96569 73.8778 0.141703 75.5615 0.141703C76.6535 0.141703 77.7241 0.540144 78.407 1.63111C79.0442 2.64213 79.0442 4.34296 79.0442 5.56674V13.5207C79.0174 13.7443 78.8189 13.9177 78.5774 13.9177H76.1343C75.9089 13.9042 75.7265 13.7361 75.6996 13.5207V6.65771C75.6996 5.27401 75.8593 3.25199 74.1756 3.25199C73.584 3.25199 73.0379 3.65043 72.7642 4.263C72.4221 5.03413 72.3765 5.80526 72.3765 6.65771V13.4637C72.3725 13.7158 72.1619 13.9177 71.9016 13.9177L71.9029 13.9191ZM41.8767 13.8879C41.7157 14.0343 41.4836 14.0438 41.3011 13.9449C40.4922 13.2645 40.3459 12.9515 39.9032 12.3037C38.5656 13.6806 37.6171 14.0939 35.8838 14.0939C33.8311 14.0939 32.2346 12.8146 32.2346 10.2559C32.2346 8.2569 33.3079 6.89759 34.8346 6.23081C36.1575 5.64399 38.0048 5.53828 39.4189 5.37701V5.05717C39.4189 4.46899 39.4645 3.77782 39.1224 3.27096C38.8259 2.81695 38.2557 2.63128 37.754 2.63128C36.8242 2.63128 35.9978 3.1124 35.7939 4.10985C35.751 4.33211 35.5913 4.55166 35.3713 4.56386L33.0074 4.30501C32.8075 4.25893 32.5861 4.09766 32.6438 3.79002C33.1818 0.93452 35.7067 0.0441251 38.0008 0.021086H38.1819C39.3558 0.0359937 40.8557 0.361252 41.7694 1.24623C42.9553 2.36566 42.8413 3.85913 42.8413 5.48543V9.32212C42.8413 10.4768 43.3162 10.9823 43.7616 11.6043C43.9186 11.8293 43.9521 12.0949 43.7536 12.2589C43.2558 12.6804 42.3704 13.457 41.8847 13.8947L41.878 13.8893L41.8767 13.8879ZM39.4202 7.88421C39.4202 8.84372 39.443 9.64331 38.9641 10.4971C38.5764 11.1896 37.9606 11.6165 37.2764 11.6165C36.3413 11.6165 35.7952 10.8969 35.7952 9.83034C35.7952 7.73242 37.6574 7.3516 39.4216 7.3516V7.88556L39.4202 7.88421ZM9.91988 13.8879C9.75889 14.0343 9.52545 14.0438 9.34433 13.9449C8.53401 13.2645 8.38912 12.9515 7.94639 12.3037C6.60748 13.6806 5.66031 14.0939 3.92697 14.0939C1.87433 14.0939 0.277832 12.8146 0.277832 10.2559C0.277832 8.2569 1.34977 6.89759 2.87784 6.23081C4.20066 5.64399 6.04803 5.53828 7.46073 5.37701V5.05717C7.46073 4.46899 7.50769 3.77782 7.16424 3.27096C6.86775 2.81695 6.29757 2.63128 5.79581 2.63128C4.86609 2.63128 4.03832 3.1124 3.83574 4.10985C3.79415 4.33211 3.63316 4.55166 3.4118 4.56386L1.04925 4.30501C0.849352 4.25893 0.627988 4.09766 0.685677 3.79002C1.22232 0.93452 3.7472 0.0441251 6.04267 0.021086H6.22378C7.39768 0.0359937 8.89758 0.361252 9.81121 1.24623C10.9972 2.36566 10.8831 3.85913 10.8831 5.48543V9.32212C10.8831 10.4768 11.3581 10.9823 11.8035 11.6043C11.9591 11.8293 11.994 12.0949 11.7954 12.2589C11.2977 12.6804 10.4122 13.457 9.92525 13.8947L9.91988 13.8893V13.8879ZM7.46208 7.88421C7.46208 8.84372 7.48488 9.64331 7.00593 10.4971C6.61821 11.1896 6.00242 11.6165 5.31821 11.6165C4.38311 11.6165 3.83709 10.8969 3.83709 9.83034C3.83709 7.73242 5.69922 7.3516 7.46342 7.3516V7.88556L7.46208 7.88421ZM112.372 18.4537V17.5254C112.372 17.2611 112.501 17.0795 112.773 17.0958C113.283 17.169 114.004 17.2422 114.515 17.1351C115.183 16.9942 115.662 16.5158 115.945 15.8612C116.345 14.9382 116.609 14.1942 116.775 13.7063L111.704 1.01448C111.618 0.798996 111.593 0.399199 112.019 0.399199H113.792C114.13 0.399199 114.268 0.616038 114.343 0.828811L118.02 11.1381L121.53 0.828811C121.601 0.617393 121.746 0.399199 122.081 0.399199H123.753C124.176 0.399199 124.153 0.79764 124.068 1.01448L119.037 14.1021C118.387 15.8435 117.519 18.6191 115.565 19.1002C114.586 19.3591 113.35 19.2655 112.624 18.9579C112.442 18.8644 112.371 18.6164 112.371 18.4537H112.372ZM110.007 13.1466C110.007 13.3824 109.815 13.5762 109.58 13.5762H108.33C108.06 13.5762 107.875 13.3797 107.842 13.1466L107.715 12.2874C107.141 12.778 106.436 13.2103 105.671 13.5112C104.201 14.0885 102.505 14.1834 101.068 13.2916C100.029 12.6479 99.4767 11.3875 99.4767 10.0892C99.4767 9.0836 99.784 8.08749 100.463 7.36379C101.37 6.37447 102.684 5.88929 104.273 5.88929C105.232 5.88929 106.605 6.00313 107.603 6.33245V4.60181C107.603 2.8427 106.87 2.08106 104.937 2.08106C103.46 2.08106 102.329 2.30603 100.757 2.80069C100.504 2.80882 100.357 2.61638 100.357 2.37921V1.39259C100.357 1.15542 100.557 0.926388 100.774 0.857271C101.897 0.362607 103.488 0.0549671 105.18 -0.00195312C107.385 -0.00195312 110.006 0.500842 110.006 3.9269V13.1453L110.007 13.1466ZM107.604 10.6204V8.01024C106.766 7.7785 105.377 7.68228 104.839 7.68228C103.99 7.68228 103.06 7.88556 102.574 8.41275C102.212 8.80035 102.047 9.356 102.047 9.89268C102.047 10.5866 102.285 11.2845 102.84 11.6287C103.485 12.0719 104.486 12.0177 105.428 11.748C106.332 11.4892 107.182 11.0297 107.603 10.6218L107.604 10.6204ZM91.5734 2.12171C94.3478 2.12171 95.1031 4.32534 95.1031 6.8488C95.1192 8.54963 94.8093 10.0661 93.9373 10.9349C93.2853 11.5854 92.5555 11.7616 91.458 11.7616C90.4813 11.7616 89.1974 11.2466 88.2369 10.531V3.31568C89.2363 2.54048 90.5109 2.12171 91.5734 2.12171ZM87.8116 18.9064H86.1373C85.9025 18.9064 85.712 18.7126 85.712 18.4768V0.850495C85.712 0.614683 85.9038 0.420883 86.1373 0.420883H87.4185C87.6881 0.420883 87.8719 0.617393 87.9068 0.850495L88.041 1.77342C89.2417 0.697352 90.7872 0.00617833 92.259 0.00617833C96.383 0.00617833 97.7394 3.43901 97.7394 7.00872C97.7394 10.8278 95.6653 13.8974 92.1557 13.8974C90.6786 13.8974 89.2967 13.3472 88.2342 12.3904V18.4768C88.2342 18.7126 88.0423 18.9064 87.8089 18.9064H87.8116Z" fill="#E6F0ED"/>
</g>
</g>
<defs>
<clipPath id="clip0_2_388">
<rect width="123.84" height="24" fill="white" transform="translate(0.277832)"/>
</clipPath>
</defs>
</svg>
