<svg width="68" height="85" viewBox="0 0 68 85" fill="none" xmlns="http://www.w3.org/2000/svg">
<g id="Group 469290">
<g id="&#240;&#159;&#166;&#134; illustration &#34;fitness timer&#34;">
<path id="Vector" d="M14.993 24.2936L12.961 25.7486L9.94924 21.5425L11.9813 20.0875L14.993 24.2936Z" fill="#314E5D"/>
<path id="Vector_2" d="M11.7406 22.4046L12.9555 21.5297C14.3164 20.5496 14.6252 18.6519 13.6451 17.291L13.3531 16.8855C12.373 15.5246 10.4753 15.2158 9.11435 16.1959L7.89945 17.0708C6.53854 18.0509 6.22982 19.9487 7.20989 21.3096L7.50192 21.7151C8.482 23.076 10.3797 23.3847 11.7406 22.4046Z" fill="#E7E7E7"/>
<path id="Vector_3" d="M13.7021 17.8954C13.1917 17.5753 12.5974 17.415 11.9953 17.4351C11.3932 17.4552 10.8108 17.6548 10.3229 18.0082L9.11391 18.8847C8.46251 19.3553 8.0242 20.065 7.89503 20.8581C7.76586 21.6513 7.95635 22.4633 8.42478 23.1163L8.56986 23.3178C8.23333 23.1084 7.94159 22.8345 7.71146 22.5118L7.41727 22.1088C6.94884 21.4558 6.75835 20.6438 6.88752 19.8506C7.01669 19.0575 7.455 18.3478 8.1064 17.8772L9.31541 17.0007C9.96856 16.5328 10.7804 16.3426 11.5734 16.4718C12.3664 16.6009 13.076 17.0389 13.5469 17.6898L13.7021 17.8954Z" fill="white"/>
<path id="Vector_4" d="M9.70631 24.138C9.11255 24.139 8.52707 23.9986 7.99833 23.7284C7.46958 23.4583 7.01276 23.0661 6.66565 22.5844L6.37347 22.1814C5.79366 21.376 5.55751 20.3733 5.71698 19.3938C5.87645 18.4143 6.41847 17.5383 7.22381 16.9585L8.43282 16.0839C8.83124 15.7958 9.28255 15.589 9.76094 15.4754C10.2393 15.3618 10.7354 15.3436 11.2209 15.4218C11.7063 15.5 12.1715 15.6732 12.59 15.9313C13.0085 16.1894 13.372 16.5275 13.6598 16.9262L13.9519 17.3292C14.2413 17.7288 14.4489 18.1816 14.5626 18.6617C14.6763 19.1417 14.694 19.6395 14.6146 20.1265C14.5352 20.6134 14.3603 21.0798 14.0999 21.4988C13.8396 21.9179 13.4989 22.2813 13.0976 22.5683L11.8886 23.4428C11.2523 23.8981 10.4887 24.1414 9.70631 24.138ZM10.6191 16.7852C10.1342 16.7865 9.6619 16.9401 9.26905 17.2244L8.06004 18.099C7.80962 18.2768 7.5968 18.5024 7.43383 18.7627C7.27085 19.0231 7.16093 19.3131 7.11037 19.616C7.05982 19.919 7.06962 20.2289 7.13923 20.5281C7.20884 20.8273 7.33688 21.1097 7.51599 21.3592L7.80816 21.7623C8.16976 22.2636 8.71553 22.601 9.32566 22.7004C9.9358 22.7998 10.5604 22.6529 11.0624 22.2922L12.2714 21.4177C12.5199 21.2388 12.7307 21.0127 12.8918 20.7524C13.0529 20.492 13.1612 20.2025 13.2104 19.9003C13.2596 19.5981 13.2488 19.2892 13.1786 18.9912C13.1084 18.6932 12.9803 18.4119 12.8014 18.1634L12.5092 17.7604C12.331 17.5113 12.1051 17.3001 11.8446 17.1389C11.5842 16.9777 11.2943 16.8698 10.9919 16.8214C10.8688 16.7995 10.7441 16.7873 10.6191 16.7852Z" fill="#314E5D"/>
<path id="Vector_5" d="M55.1497 20.0995L57.1854 21.5655L54.1508 25.7793L52.1151 24.3132L55.1497 20.0995Z" fill="#314E5D"/>
<path id="Vector_6" d="M59.102 17.0691L57.8871 16.1941C56.5262 15.2141 54.6285 15.5228 53.6484 16.8837L53.3564 17.2892C52.3763 18.6501 52.685 20.5479 54.0459 21.5279L55.2608 22.4028C56.6217 23.3829 58.5195 23.0742 59.4995 21.7133L59.7916 21.3078C60.7716 19.9469 60.4629 18.0491 59.102 17.0691Z" fill="#E7E7E7"/>
<path id="Vector_7" d="M53.2971 17.8954C53.8075 17.5753 54.4019 17.415 55.004 17.4351C55.6061 17.4552 56.1884 17.6548 56.6763 18.0082L57.8853 18.8847C58.5367 19.3553 58.975 20.065 59.1042 20.8581C59.2334 21.6513 59.0429 22.4633 58.5744 23.1163L58.4294 23.3178C58.7659 23.1084 59.0576 22.8345 59.2878 22.5118L59.582 22.1088C60.0504 21.4558 60.2409 20.6438 60.1117 19.8506C59.9825 19.0575 59.5442 18.3478 58.8928 17.8772L57.6838 17.0007C57.0307 16.5328 56.2188 16.3426 55.4258 16.4718C54.6328 16.6009 53.9232 17.0389 53.4523 17.6898L53.2971 17.8954Z" fill="white"/>
<path id="Vector_8" d="M57.2928 24.1378C56.5093 24.1385 55.7456 23.8916 55.1106 23.4326L53.9016 22.5581C53.5016 22.2712 53.1622 21.9083 52.9028 21.4901C52.6433 21.0718 52.4689 20.6066 52.3895 20.1208C52.3102 19.6351 52.3274 19.1385 52.4403 18.6595C52.5531 18.1804 52.7594 17.7283 53.0472 17.3291L53.3394 16.9261C53.9195 16.1211 54.7957 15.5795 55.7752 15.4204C56.7546 15.2613 57.7572 15.4978 58.5623 16.0778L59.7713 16.9523C60.5766 17.5321 61.1187 18.4082 61.2781 19.3876C61.4376 20.3671 61.2014 21.3698 60.6216 22.1752L60.3295 22.5782C59.9834 23.0605 59.5275 23.4535 58.9995 23.7247C58.4714 23.9959 57.8864 24.1375 57.2928 24.1378ZM55.9347 22.2901C56.4363 22.6515 57.0609 22.799 57.6712 22.7C58.2814 22.601 58.8274 22.2636 59.189 21.7621L59.4811 21.3591C59.66 21.1107 59.7882 20.8294 59.8584 20.5314C59.9286 20.2334 59.9394 19.9244 59.8902 19.6222C59.8409 19.3201 59.7327 19.0305 59.5716 18.7702C59.4105 18.5098 59.1997 18.2838 58.9512 18.1049L57.7422 17.2304C57.4937 17.0515 57.2124 16.9233 56.9144 16.8531C56.6164 16.7829 56.3075 16.7721 56.0053 16.8213C55.7031 16.8706 55.4136 16.9788 55.1532 17.1399C54.8929 17.301 54.6668 17.5118 54.4879 17.7603L54.1957 18.1633C54.0169 18.4118 53.8887 18.6931 53.8185 18.9911C53.7483 19.2891 53.7375 19.598 53.7867 19.9002C53.8359 20.2024 53.9442 20.4919 54.1053 20.7523C54.2664 21.0126 54.4772 21.2387 54.7257 21.4176L55.9347 22.2901Z" fill="#314E5D"/>
<path id="Vector_9" d="M30.4832 13.1138H36.3166V19.7633H30.4832V13.1138Z" fill="#CED0D0"/>
<path id="Vector_10" d="M38.1281 21.5767H29.8787V12.5092H38.1301L38.1281 21.5767ZM32.2947 19.1587H35.7101V14.9272H32.2967L32.2947 19.1587Z" fill="#314E5D"/>
<path id="Vector_11" d="M38.4222 1.20898H28.7783C27.1012 1.20898 25.7417 2.56853 25.7417 4.24561V11.8221C25.7417 13.4992 27.1012 14.8587 28.7783 14.8587H38.4222C40.0993 14.8587 41.4588 13.4992 41.4588 11.8221V4.24561C41.4588 2.56853 40.0993 1.20898 38.4222 1.20898Z" fill="#E7E7E7"/>
<path id="Vector_12" d="M41.8701 3.19577C41.4429 2.96807 39.1417 2.03109 38.6239 2.03109L31.1965 3.4416C30.3912 3.4416 29.6188 3.76153 29.0493 4.33101C28.4798 4.90049 28.1599 5.67287 28.1599 6.47823V14.0547C28.1622 14.4192 28.2305 14.7804 28.3614 15.1206C27.875 14.8625 27.4681 14.4769 27.1841 14.0052C26.9001 13.5334 26.7499 12.9933 26.7494 12.4427V4.86622C26.7494 4.06085 27.0693 3.28848 27.6388 2.719C28.2083 2.14952 28.9807 1.82959 29.786 1.82959H39.4299C40.7316 1.82959 41.4388 2.0452 41.8701 3.19577Z" fill="white"/>
<path id="Vector_13" d="M33.2983 83.6393C51.1597 83.6393 65.6393 69.1597 65.6393 51.2983C65.6393 33.4368 51.1597 18.9573 33.2983 18.9573C15.4368 18.9573 0.957275 33.4368 0.957275 51.2983C0.957275 69.1597 15.4368 83.6393 33.2983 83.6393Z" fill="#E7E7E7"/>
<path id="Vector_14" d="M66.0422 51.7012C66.0387 56.3801 65.0208 61.0026 63.0586 65.2502C61.0964 69.4977 58.2366 73.2693 54.6762 76.3051C51.1159 79.3409 46.9396 81.5686 42.4353 82.8347C37.931 84.1009 33.2057 84.3753 28.5851 83.6392C36.7085 83.609 44.5231 80.5229 50.4753 74.9945C56.4275 69.4662 60.0814 61.9004 60.7105 53.8013C61.3397 45.7022 58.898 37.6629 53.8709 31.2817C48.8439 24.9004 41.5996 20.6446 33.5783 19.3602H33.7012C42.2786 19.3602 50.5046 22.7676 56.5697 28.8327C62.6349 34.8978 66.0422 43.1239 66.0422 51.7012Z" fill="#CED0D0"/>
<path id="Vector_15" d="M33.55 84.8986C15.0501 84.8986 0 69.8484 0 51.3486C0 32.8487 15.0501 17.7986 33.55 17.7986C52.0499 17.7986 67.1 32.8447 67.1 51.3486C67.1 69.8525 52.0499 84.8986 33.55 84.8986ZM33.55 20.2166C16.3841 20.2166 2.41802 34.1827 2.41802 51.3486C2.41802 68.5145 16.3841 82.4806 33.55 82.4806C50.7159 82.4806 64.682 68.5105 64.682 51.3486C64.682 34.1867 50.7159 20.2166 33.55 20.2166Z" fill="#314E5D"/>
<path id="Vector_16" d="M33.3484 77.0904C47.5652 77.0904 59.0902 65.5654 59.0902 51.3486C59.0902 37.1318 47.5652 25.6068 33.3484 25.6068C19.1316 25.6068 7.60657 37.1318 7.60657 51.3486C7.60657 65.5654 19.1316 77.0904 33.3484 77.0904Z" fill="#E3FCFF"/>
<path id="Vector_17" opacity="0.8" d="M60.0977 51.1472C60.1002 55.1813 59.1529 59.1593 57.3326 62.7593C55.5123 66.3593 52.87 69.4803 49.6197 71.8696C54.297 67.3275 57.0766 61.1797 57.3971 54.6677C57.7176 48.1557 55.5551 41.7647 51.3463 36.7853C47.1376 31.8058 41.1961 28.6089 34.7217 27.8401C28.2473 27.0713 21.7224 28.7879 16.4646 32.6433C20.0979 29.1297 24.6853 26.7635 29.6546 25.84C34.6239 24.9164 39.7551 25.4763 44.4082 27.4498C49.0614 29.4234 53.0306 32.7232 55.8206 36.9377C58.6107 41.1522 60.0983 46.0948 60.0977 51.1492V51.1472Z" fill="white"/>
<path id="Vector_18" d="M55.1671 65.8345C52.9375 69.176 49.957 71.9495 46.4638 73.933C42.9706 75.9165 39.0617 77.055 35.0498 77.2575C31.0378 77.4599 27.0342 76.7207 23.359 75.099C19.6839 73.4772 16.4393 71.0179 13.8847 67.9178C11.3301 64.8177 9.53642 61.1627 8.64715 57.2454C7.75788 53.328 7.79768 49.2568 8.76337 45.3576C9.72906 41.4584 11.5938 37.8392 14.2086 34.7896C16.8233 31.74 20.1153 29.3446 23.8215 27.795C20.7561 32.3945 19.2522 37.8584 19.5322 43.3787C19.8123 48.899 21.8613 54.1826 25.3764 58.4483C28.8914 62.714 33.6859 65.7354 39.0508 67.0655C44.4158 68.3957 50.0664 67.9641 55.1671 65.8345Z" fill="#B1C4C7"/>
<g id="Group">
<path id="Vector_19" d="M33.5762 78.3236C18.7155 78.3236 6.62537 66.2336 6.62537 51.3728C6.62537 36.5121 18.7155 24.422 33.5762 24.422C48.4369 24.422 60.527 36.5121 60.527 51.3829C60.527 66.2537 48.4369 78.3236 33.5762 78.3236ZM33.5762 26.84C28.7245 26.84 23.9817 28.2786 19.9475 30.9738C15.9134 33.6691 12.7689 37.5 10.9118 41.9822C9.05467 46.4644 8.56825 51.3966 9.51404 56.1552C10.4598 60.9139 12.7954 65.2852 16.2253 68.7166C19.6553 72.148 24.0257 74.4853 28.7839 75.433C33.5421 76.3808 38.4745 75.8964 42.9575 74.0411C47.4405 72.1858 51.2727 69.0429 53.9696 65.0098C56.6665 60.9768 58.107 56.2346 58.109 51.3829C58.1042 44.8769 55.5183 38.6387 50.9188 34.0373C46.3193 29.436 40.0821 26.8475 33.5762 26.84Z" fill="#314E5D"/>
<path id="Vector_20" d="M32.3671 25.6069H34.7851V32.6595H32.3671V25.6069Z" fill="#314E5D"/>
<path id="Vector_21" d="M32.3671 68.7281H34.7851V75.7807H32.3671V68.7281Z" fill="#314E5D"/>
<path id="Vector_22" d="M14.8052 34.2117L16.515 32.5019L21.5019 37.4888L19.7921 39.1986L14.8052 34.2117Z" fill="#314E5D"/>
<path id="Vector_23" d="M45.2961 64.7048L47.0059 62.995L51.9928 67.9819L50.283 69.6917L45.2961 64.7048Z" fill="#314E5D"/>
<path id="Vector_24" d="M44.8943 37.4938L49.8812 32.5069L51.591 34.2167L46.6041 39.2036L44.8943 37.4938Z" fill="#314E5D"/>
<path id="Vector_25" d="M14.4032 67.9767L19.3901 62.9898L21.0999 64.6996L16.113 69.6865L14.4032 67.9767Z" fill="#314E5D"/>
<path id="Vector_26" d="M51.7355 50.1638H58.788V52.5818H51.7355V50.1638Z" fill="#314E5D"/>
<path id="Vector_27" d="M7.80798 50.1638H14.8605V52.5818H7.80798V50.1638Z" fill="#314E5D"/>
</g>
<path id="Vector_28" d="M32.3914 56.8395C35.1736 56.8395 37.429 54.5841 37.429 51.8019C37.429 49.0198 35.1736 46.7644 32.3914 46.7644C29.6093 46.7644 27.3539 49.0198 27.3539 51.8019C27.3539 54.5841 29.6093 56.8395 32.3914 56.8395Z" fill="#E7E7E7"/>
<path id="Vector_29" d="M37.4288 51.6005C37.4288 52.9366 36.898 54.2179 35.9533 55.1626C35.0086 56.1073 33.7273 56.6381 32.3912 56.6381C32.0775 56.6383 31.7644 56.6086 31.4563 56.5494C32.4991 56.1788 33.3909 55.475 33.9938 54.5469C34.5967 53.6188 34.8772 52.5179 34.7919 51.4144C34.7066 50.311 34.2602 49.2663 33.5218 48.4419C32.7835 47.6174 31.7941 47.0591 30.7067 46.8532C31.2472 46.6598 31.8171 46.5616 32.3912 46.563C33.7273 46.563 35.0086 47.0937 35.9533 48.0385C36.898 48.9832 37.4288 50.2645 37.4288 51.6005Z" fill="#CED0D0"/>
<path id="Vector_30" d="M37.6908 48.4369L43.3329 42.7948C44.7091 41.4186 42.5732 39.2806 41.1949 40.6569L35.5529 46.2989C34.1766 47.6752 36.3125 49.8131 37.6908 48.4369Z" fill="#314E5D"/>
<path id="Vector_31" d="M32.7944 57.444C31.559 57.444 30.3512 57.0777 29.324 56.3913C28.2968 55.7049 27.4961 54.7293 27.0233 53.5879C26.5506 52.4465 26.4269 51.1905 26.6679 49.9788C26.9089 48.7671 27.5038 47.6541 28.3774 46.7805C29.251 45.9069 30.364 45.312 31.5758 45.071C32.7875 44.8299 34.0434 44.9536 35.1849 45.4264C36.3263 45.8992 37.3018 46.6998 37.9882 47.7271C38.6746 48.7543 39.0409 49.962 39.0409 51.1975C39.0409 52.8542 38.3828 54.443 37.2114 55.6145C36.0399 56.7859 34.4511 57.444 32.7944 57.444ZM32.7944 47.3689C32.0372 47.3689 31.297 47.5935 30.6674 48.0142C30.0378 48.4349 29.5471 49.0328 29.2573 49.7324C28.9675 50.4319 28.8917 51.2017 29.0394 51.9444C29.1872 52.687 29.5518 53.3692 30.0872 53.9047C30.6227 54.4401 31.3048 54.8047 32.0475 54.9524C32.7902 55.1002 33.5599 55.0243 34.2595 54.7346C34.9591 54.4448 35.557 53.9541 35.9777 53.3245C36.3984 52.6949 36.6229 51.9547 36.6229 51.1975C36.6229 50.1821 36.2196 49.2083 35.5016 48.4903C34.7836 47.7723 33.8098 47.3689 32.7944 47.3689Z" fill="#314E5D"/>
<path id="Vector_32" d="M41.056 4.0442V11.6207C41.0558 12.2694 40.8479 12.901 40.4629 13.4231C40.0778 13.9452 39.5358 14.3304 38.9161 14.5223C38.1604 12.8055 37.6446 11.0262 37.6002 9.14622C37.5398 6.46222 38.4526 3.93539 39.7664 1.56372C40.1652 1.84279 40.4907 2.21404 40.7152 2.6459C40.9397 3.07776 41.0566 3.55746 41.056 4.0442Z" fill="#CED0D0"/>
<path id="Vector_33" d="M38.6237 16.0677H28.9799C27.8542 16.0667 26.7749 15.619 25.9789 14.823C25.183 14.0271 24.7353 12.9478 24.7343 11.8221V4.24564C24.7353 3.11995 25.183 2.04068 25.9789 1.2447C26.7749 0.448716 27.8542 0.001067 28.9799 0L38.6237 0C39.7494 0.001067 40.8287 0.448716 41.6247 1.2447C42.4207 2.04068 42.8683 3.11995 42.8694 4.24564V11.8221C42.8683 12.9478 42.4207 14.0271 41.6247 14.823C40.8287 15.619 39.7494 16.0667 38.6237 16.0677ZM28.9799 2.41802C28.4953 2.41855 28.0308 2.61127 27.6882 2.9539C27.3455 3.29653 27.1528 3.76109 27.1523 4.24564V11.8221C27.1528 12.3066 27.3455 12.7712 27.6882 13.1138C28.0308 13.4565 28.4953 13.6492 28.9799 13.6497H38.6237C39.1083 13.6492 39.5729 13.4565 39.9155 13.1138C40.2581 12.7712 40.4508 12.3066 40.4514 11.8221V4.24564C40.4508 3.76109 40.2581 3.29653 39.9155 2.9539C39.5729 2.61127 39.1083 2.41855 38.6237 2.41802H28.9799Z" fill="#314E5D"/>
<path id="Vector_34" d="M31.6801 21.7783C29.6833 21.8347 27.6501 22.2961 25.7379 22.8482C21.2879 24.1296 17.1737 26.3727 13.6861 29.4192C11.1069 31.7135 8.91107 34.4052 7.18159 37.3926C6.77859 38.0656 7.83043 38.6742 8.22537 37.9971C12.8539 30.1184 20.7547 24.559 29.8223 23.1727C30.4382 23.0676 31.06 23.0003 31.6842 22.9712C32.46 22.949 32.464 21.74 31.6842 21.7621L31.6801 21.7783Z" fill="white"/>
</g>
</g>
</svg>
