<svg width="22" height="22" viewBox="0 0 22 22" fill="none" xmlns="http://www.w3.org/2000/svg">
<g clip-path="url(#clip0_99_969)">
<path d="M12.0312 3.78125C12.0312 3.21171 11.5695 2.75 11 2.75C10.4305 2.75 9.96875 3.21171 9.96875 3.78125V9.96875H3.78125C3.21171 9.96875 2.75 10.4305 2.75 11C2.75 11.5695 3.21171 12.0312 3.78125 12.0312H9.96875V18.2188C9.96875 18.7883 10.4305 19.25 11 19.25C11.5695 19.25 12.0312 18.7883 12.0312 18.2188V12.0312H18.2188C18.7883 12.0312 19.25 11.5695 19.25 11C19.25 10.4305 18.7883 9.96875 18.2188 9.96875H12.0312V3.78125Z" fill="#5C0C87"/>
</g>
<defs>
<clipPath id="clip0_99_969">
<rect width="22" height="22" fill="white"/>
</clipPath>
</defs>
</svg>
