<svg width="68" height="85" viewBox="0 0 68 85" fill="none" xmlns="http://www.w3.org/2000/svg">
<path d="M14.9932 24.2935L12.9611 25.7485L9.94936 21.5424L11.9814 20.0874L14.9932 24.2935Z" fill="#314E5D"/>
<path d="M11.7404 22.4049L12.9553 21.5299C14.3162 20.5499 14.6249 18.6521 13.6449 17.2912L13.3528 16.8857C12.3727 15.5248 10.475 15.2161 9.1141 16.1962L7.8992 17.0711C6.5383 18.0512 6.22957 19.9489 7.20964 21.3098L7.50168 21.7153C8.48175 23.0762 10.3795 23.3849 11.7404 22.4049Z" fill="#E7E7E7"/>
<path d="M13.7022 17.8952C13.1919 17.5752 12.5975 17.4149 11.9954 17.435C11.3933 17.4551 10.8109 17.6547 10.323 18.0081L9.11403 18.8846C8.46263 19.3552 8.02432 20.0648 7.89515 20.858C7.76598 21.6512 7.95647 22.4632 8.4249 23.1162L8.56998 23.3177C8.23345 23.1083 7.94171 22.8343 7.71158 22.5116L7.41739 22.1086C6.94897 21.4557 6.75847 20.6437 6.88764 19.8505C7.01681 19.0573 7.45512 18.3477 8.10653 17.8771L9.31553 17.0006C9.96868 16.5327 10.7806 16.3425 11.5736 16.4717C12.3666 16.6008 13.0761 17.0388 13.5471 17.6897L13.7022 17.8952Z" fill="white"/>
<path d="M9.70643 24.1378C9.11267 24.1388 8.5272 23.9985 7.99845 23.7283C7.4697 23.4582 7.01288 23.066 6.66577 22.5843L6.3736 22.1813C5.79378 21.3759 5.55763 20.3732 5.7171 19.3937C5.87657 18.4142 6.41859 17.5382 7.22393 16.9583L8.43294 16.0838C8.83137 15.7957 9.28267 15.5889 9.76106 15.4753C10.2395 15.3617 10.7355 15.3435 11.221 15.4217C11.7064 15.4999 12.1717 15.673 12.5902 15.9312C13.0086 16.1893 13.3721 16.5274 13.6599 16.9261L13.9521 17.3291C14.2415 17.7286 14.449 18.1815 14.5627 18.6615C14.6764 19.1416 14.6941 19.6394 14.6147 20.1263C14.5353 20.6133 14.3604 21.0797 14.1 21.4987C13.8397 21.9178 13.499 22.2812 13.0977 22.5681L11.8887 23.4427C11.2524 23.898 10.4888 24.1413 9.70643 24.1378ZM10.6192 16.785C10.1343 16.7863 9.66202 16.94 9.26917 17.2243L8.06016 18.0988C7.80974 18.2767 7.59692 18.5023 7.43395 18.7626C7.27097 19.023 7.16105 19.3129 7.11049 19.6159C7.05994 19.9189 7.06975 20.2288 7.13935 20.528C7.20896 20.8271 7.337 21.1096 7.51611 21.3591L7.80829 21.7621C8.16988 22.2635 8.71565 22.6009 9.32579 22.7003C9.93592 22.7996 10.5605 22.6528 11.0625 22.2921L12.2715 21.4176C12.52 21.2387 12.7308 21.0126 12.8919 20.7523C13.0531 20.4919 13.1613 20.2024 13.2105 19.9002C13.2597 19.598 13.2489 19.2891 13.1788 18.9911C13.1086 18.6931 12.9804 18.4118 12.8015 18.1633L12.5093 17.7603C12.3311 17.5112 12.1052 17.2999 11.8448 17.1388C11.5843 16.9776 11.2945 16.8697 10.992 16.8213C10.8689 16.7993 10.7443 16.7872 10.6192 16.785Z" fill="#314E5D"/>
<path d="M55.1499 20.0996L57.1856 21.5657L54.1511 25.7794L52.1153 24.3133L55.1499 20.0996Z" fill="#314E5D"/>
<path d="M59.1019 17.0689L57.887 16.194C56.5261 15.2139 54.6283 15.5227 53.6483 16.8836L53.3562 17.2891C52.3762 18.65 52.6849 20.5477 54.0458 21.5278L55.2607 22.4027C56.6216 23.3828 58.5193 23.0741 59.4994 21.7132L59.7915 21.3077C60.7715 19.9467 60.4628 18.049 59.1019 17.0689Z" fill="#E7E7E7"/>
<path d="M53.2969 17.8952C53.8072 17.5752 54.4016 17.4149 55.0037 17.435C55.6058 17.4551 56.1882 17.6547 56.6761 18.0081L57.8851 18.8846C58.5365 19.3552 58.9748 20.0648 59.1039 20.858C59.2331 21.6512 59.0426 22.4632 58.5742 23.1162L58.4291 23.3177C58.7656 23.1083 59.0574 22.8343 59.2875 22.5116L59.5817 22.1086C60.0501 21.4557 60.2406 20.6437 60.1115 19.8505C59.9823 19.0573 59.544 18.3477 58.8926 17.8771L57.6836 17.0006C57.0304 16.5327 56.2185 16.3425 55.4255 16.4717C54.6325 16.6008 53.923 17.0388 53.452 17.6897L53.2969 17.8952Z" fill="white"/>
<path d="M57.2931 24.138C56.5095 24.1386 55.7458 23.8918 55.1108 23.4327L53.9018 22.5582C53.5019 22.2713 53.1625 21.9084 52.903 21.4902C52.6436 21.072 52.4692 20.6067 52.3898 20.121C52.3104 19.6352 52.3277 19.1386 52.4405 18.6596C52.5534 18.1805 52.7596 17.7284 53.0474 17.3292L53.3396 16.9262C53.9198 16.1212 54.7959 15.5796 55.7754 15.4205C56.7549 15.2614 57.7574 15.4979 58.5625 16.0779L59.7715 16.9524C60.5769 17.5323 61.1189 18.4083 61.2784 19.3878C61.4378 20.3672 61.2017 21.37 60.6219 22.1753L60.3297 22.5783C59.9836 23.0606 59.5278 23.4536 58.9997 23.7248C58.4717 23.996 57.8867 24.1376 57.2931 24.138ZM55.935 22.2902C56.4365 22.6517 57.0611 22.7991 57.6714 22.7001C58.2817 22.6011 58.8276 22.2638 59.1892 21.7623L59.4814 21.3593C59.6603 21.1108 59.7885 20.8295 59.8586 20.5315C59.9288 20.2335 59.9396 19.9246 59.8904 19.6224C59.8412 19.3202 59.7329 19.0306 59.5718 18.7703C59.4107 18.5099 59.1999 18.2839 58.9514 18.105L57.7424 17.2305C57.4939 17.0516 57.2127 16.9234 56.9147 16.8532C56.6166 16.783 56.3077 16.7723 56.0055 16.8215C55.7034 16.8707 55.4138 16.9789 55.1535 17.14C54.8931 17.3011 54.667 17.512 54.4882 17.7604L54.196 18.1634C54.0171 18.4119 53.8889 18.6932 53.8187 18.9912C53.7486 19.2892 53.7378 19.5981 53.787 19.9003C53.8362 20.2025 53.9444 20.492 54.1055 20.7524C54.2667 21.0127 54.4775 21.2388 54.7259 21.4177L55.935 22.2902Z" fill="#314E5D"/>
<path d="M30.4829 13.1138H36.3164V19.7633H30.4829V13.1138Z" fill="#CED0D0"/>
<path d="M38.1284 21.5768H29.8789V12.5093H38.1304L38.1284 21.5768ZM32.2949 19.1588H35.7104V14.9273H32.2969L32.2949 19.1588Z" fill="#314E5D"/>
<path d="M38.4222 1.20898H28.7783C27.1012 1.20898 25.7417 2.56853 25.7417 4.24561V11.8221C25.7417 13.4992 27.1012 14.8587 28.7783 14.8587H38.4222C40.0993 14.8587 41.4588 13.4992 41.4588 11.8221V4.24561C41.4588 2.56853 40.0993 1.20898 38.4222 1.20898Z" fill="#E7E7E7"/>
<path d="M41.8702 3.19577C41.443 2.96807 39.1419 2.03109 38.624 2.03109L31.1967 3.4416C30.3913 3.4416 29.6189 3.76153 29.0494 4.33101C28.48 4.90049 28.16 5.67287 28.16 6.47823V14.0547C28.1624 14.4192 28.2306 14.7804 28.3615 15.1206C27.8752 14.8625 27.4682 14.4769 27.1842 14.0052C26.9002 13.5334 26.75 12.9933 26.7495 12.4427V4.86622C26.7495 4.06085 27.0694 3.28848 27.6389 2.719C28.2084 2.14952 28.9808 1.82959 29.7861 1.82959H39.43C40.7317 1.82959 41.439 2.0452 41.8702 3.19577Z" fill="white"/>
<path d="M33.298 83.639C51.1595 83.639 65.639 69.1595 65.639 51.298C65.639 33.4366 51.1595 18.957 33.298 18.957C15.4366 18.957 0.957031 33.4366 0.957031 51.298C0.957031 69.1595 15.4366 83.639 33.298 83.639Z" fill="#E7E7E7"/>
<path d="M66.0421 51.7013C66.0386 56.3802 65.0207 61.0027 63.0585 65.2503C61.0963 69.4979 58.2365 73.2695 54.6761 76.3052C51.1157 79.341 46.9395 81.5687 42.4352 82.8348C37.9309 84.101 33.2056 84.3755 28.585 83.6393C36.7084 83.6091 44.523 80.523 50.4752 74.9947C56.4274 69.4663 60.0812 61.9005 60.7104 53.8014C61.3395 45.7023 58.8979 37.663 53.8708 31.2818C48.8438 24.9006 41.5995 20.6447 33.5782 19.3604H33.7011C42.2784 19.3604 50.5045 22.7677 56.5696 28.8328C62.6347 34.8979 66.0421 43.124 66.0421 51.7013Z" fill="#CED0D0"/>
<path d="M33.55 84.8988C15.0501 84.8988 0 69.8487 0 51.3488C0 32.849 15.0501 17.7988 33.55 17.7988C52.0499 17.7988 67.1 32.8449 67.1 51.3488C67.1 69.8527 52.0499 84.8988 33.55 84.8988ZM33.55 20.2168C16.3841 20.2168 2.41802 34.1829 2.41802 51.3488C2.41802 68.5147 16.3841 82.4808 33.55 82.4808C50.7159 82.4808 64.682 68.5107 64.682 51.3488C64.682 34.1869 50.7159 20.2168 33.55 20.2168Z" fill="#314E5D"/>
<path d="M33.3483 77.0906C47.5651 77.0906 59.0901 65.5656 59.0901 51.3488C59.0901 37.1319 47.5651 25.6069 33.3483 25.6069C19.1314 25.6069 7.60645 37.1319 7.60645 51.3488C7.60645 65.5656 19.1314 77.0906 33.3483 77.0906Z" fill="#E3FCFF"/>
<path opacity="0.8" d="M60.098 51.1473C60.1004 55.1814 59.1532 59.1594 57.3328 62.7594C55.5125 66.3594 52.8703 69.4804 49.6199 71.8697C54.2973 67.3276 57.0769 61.1798 57.3973 54.6678C57.7178 48.1558 55.5554 41.7648 51.3466 36.7854C47.1378 31.8059 41.1964 28.609 34.722 27.8402C28.2476 27.0714 21.7227 28.7881 16.4648 32.6434C20.0982 29.1298 24.6856 26.7637 29.6549 25.8401C34.6241 24.9165 39.7553 25.4764 44.4085 27.45C49.0616 29.4235 53.0308 32.7233 55.8209 36.9378C58.611 41.1523 60.0985 46.0949 60.098 51.1493V51.1473Z" fill="white"/>
<path d="M55.1669 65.8344C52.9374 69.1759 49.9569 71.9494 46.4637 73.9329C42.9705 75.9164 39.0616 77.0549 35.0496 77.2573C31.0377 77.4598 27.034 76.7206 23.3589 75.0988C19.6838 73.4771 16.4391 71.0178 13.8846 67.9177C11.33 64.8175 9.5363 61.1626 8.64703 57.2452C7.75776 53.3279 7.79756 49.2567 8.76325 45.3575C9.72894 41.4582 11.5937 37.8391 14.2084 34.7895C16.8231 31.7399 20.1152 29.3445 23.8214 27.7949C20.756 32.3944 19.2521 37.8583 19.5321 43.3786C19.8121 48.8989 21.8612 54.1825 25.3762 58.4482C28.8913 62.7139 33.6858 65.7352 39.0507 67.0654C44.4157 68.3956 50.0663 67.9639 55.1669 65.8344Z" fill="#B1C4C7"/>
<path d="M33.5763 78.3235C18.7156 78.3235 6.62549 66.2334 6.62549 51.3727C6.62549 36.512 18.7156 24.4219 33.5763 24.4219C48.437 24.4219 60.5271 36.512 60.5271 51.3828C60.5271 66.2536 48.437 78.3235 33.5763 78.3235ZM33.5763 26.8399C28.7246 26.8399 23.9818 28.2785 19.9477 30.9737C15.9135 33.669 12.769 37.4999 10.9119 41.9821C9.05479 46.4643 8.56838 51.3965 9.51416 56.1551C10.4599 60.9137 12.7955 65.2851 16.2254 68.7165C19.6554 72.1478 24.0258 74.4851 28.784 75.4329C33.5423 76.3806 38.4747 75.8962 42.9576 74.041C47.4406 72.1857 51.2728 69.0428 53.9697 65.0097C56.6666 60.9767 58.1071 56.2345 58.1091 51.3828C58.1043 44.8768 55.5184 38.6386 50.9189 34.0372C46.3195 29.4358 40.0823 26.8474 33.5763 26.8399Z" fill="#314E5D"/>
<path d="M32.3672 25.6069H34.7852V32.6595H32.3672V25.6069Z" fill="#314E5D"/>
<path d="M32.3672 68.728H34.7852V75.7806H32.3672V68.728Z" fill="#314E5D"/>
<path d="M14.8052 34.2114L16.515 32.5016L21.5019 37.4885L19.7921 39.1983L14.8052 34.2114Z" fill="#314E5D"/>
<path d="M45.2964 64.7046L47.0062 62.9948L51.9931 67.9817L50.2833 69.6915L45.2964 64.7046Z" fill="#314E5D"/>
<path d="M44.8945 37.4937L49.8814 32.5067L51.5912 34.2165L46.6043 39.2034L44.8945 37.4937Z" fill="#314E5D"/>
<path d="M14.4033 67.9766L19.3902 62.9897L21.1 64.6995L16.1131 69.6864L14.4033 67.9766Z" fill="#314E5D"/>
<path d="M51.7354 50.1636H58.7879V52.5816H51.7354V50.1636Z" fill="#314E5D"/>
<path d="M7.80811 50.1636H14.8607V52.5816H7.80811V50.1636Z" fill="#314E5D"/>
<path d="M32.3915 56.8397C35.1737 56.8397 37.4291 54.5843 37.4291 51.8022C37.4291 49.02 35.1737 46.7646 32.3915 46.7646C29.6094 46.7646 27.354 49.02 27.354 51.8022C27.354 54.5843 29.6094 56.8397 32.3915 56.8397Z" fill="#E7E7E7"/>
<path d="M37.4286 51.6005C37.4286 52.9366 36.8979 54.2179 35.9532 55.1626C35.0085 56.1073 33.7271 56.6381 32.3911 56.6381C32.0773 56.6383 31.7643 56.6086 31.4561 56.5494C32.499 56.1788 33.3908 55.475 33.9937 54.5469C34.5966 53.6188 34.8771 52.5179 34.7918 51.4144C34.7064 50.311 34.2601 49.2663 33.5217 48.4419C32.7833 47.6174 31.794 47.0591 30.7065 46.8532C31.2471 46.6598 31.817 46.5616 32.3911 46.563C33.7271 46.563 35.0085 47.0937 35.9532 48.0385C36.8979 48.9832 37.4286 50.2645 37.4286 51.6005Z" fill="#CED0D0"/>
<path d="M37.6911 48.4369L43.3331 42.7948C44.7094 41.4186 42.5734 39.2806 41.1952 40.6569L35.5531 46.2989C34.1769 47.6752 36.3128 49.8131 37.6911 48.4369Z" fill="#314E5D"/>
<path d="M32.7944 57.4438C31.559 57.4438 30.3512 57.0774 29.324 56.391C28.2968 55.7047 27.4961 54.7291 27.0233 53.5877C26.5506 52.4463 26.4269 51.1903 26.6679 49.9786C26.9089 48.7669 27.5038 47.6539 28.3774 46.7803C29.251 45.9067 30.364 45.3117 31.5758 45.0707C32.7875 44.8297 34.0434 44.9534 35.1849 45.4262C36.3263 45.899 37.3018 46.6996 37.9882 47.7268C38.6746 48.7541 39.0409 49.9618 39.0409 51.1972C39.0409 52.8539 38.3828 54.4428 37.2114 55.6142C36.0399 56.7857 34.4511 57.4438 32.7944 57.4438ZM32.7944 47.3687C32.0372 47.3687 31.297 47.5932 30.6674 48.0139C30.0378 48.4346 29.5471 49.0325 29.2573 49.7321C28.9675 50.4317 28.8917 51.2015 29.0394 51.9441C29.1872 52.6868 29.5518 53.369 30.0872 53.9044C30.6227 54.4398 31.3048 54.8045 32.0475 54.9522C32.7902 55.0999 33.5599 55.0241 34.2595 54.7343C34.9591 54.4446 35.557 53.9538 35.9777 53.3242C36.3984 52.6947 36.6229 51.9544 36.6229 51.1972C36.6229 50.1818 36.2196 49.208 35.5016 48.4901C34.7836 47.7721 33.8098 47.3687 32.7944 47.3687Z" fill="#314E5D"/>
<path d="M41.0558 4.04396V11.6204C41.0555 12.2692 40.8477 12.9008 40.4626 13.4229C40.0776 13.945 39.5355 14.3302 38.9158 14.522C38.1602 12.8052 37.6443 11.026 37.6 9.14598C37.5396 6.46198 38.4524 3.93515 39.7661 1.56348C40.1649 1.84254 40.4904 2.21379 40.715 2.64566C40.9395 3.07752 41.0564 3.55722 41.0558 4.04396Z" fill="#CED0D0"/>
<path d="M38.6239 16.0677H28.98C27.8543 16.0667 26.7751 15.619 25.9791 14.823C25.1831 14.0271 24.7354 12.9478 24.7344 11.8221V4.24564C24.7354 3.11995 25.1831 2.04068 25.9791 1.2447C26.7751 0.448716 27.8543 0.001067 28.98 0L38.6239 0C39.7496 0.001067 40.8288 0.448716 41.6248 1.2447C42.4208 2.04068 42.8684 3.11995 42.8695 4.24564V11.8221C42.8684 12.9478 42.4208 14.0271 41.6248 14.823C40.8288 15.619 39.7496 16.0667 38.6239 16.0677ZM28.98 2.41802C28.4955 2.41855 28.0309 2.61127 27.6883 2.9539C27.3457 3.29653 27.1529 3.76109 27.1524 4.24564V11.8221C27.1529 12.3066 27.3457 12.7712 27.6883 13.1138C28.0309 13.4565 28.4955 13.6492 28.98 13.6497H38.6239C39.1084 13.6492 39.573 13.4565 39.9156 13.1138C40.2582 12.7712 40.451 12.3066 40.4515 11.8221V4.24564C40.451 3.76109 40.2582 3.29653 39.9156 2.9539C39.573 2.61127 39.1084 2.41855 38.6239 2.41802H28.98Z" fill="#314E5D"/>
<path d="M31.6803 21.7781C29.6834 21.8346 27.6502 22.296 25.738 22.8481C21.288 24.1294 17.1738 26.3726 13.6862 29.4191C11.107 31.7133 8.91119 34.4051 7.18172 37.3925C6.77871 38.0655 7.83055 38.674 8.22549 37.997C12.854 30.1183 20.7549 24.5589 29.8224 23.1725C30.4384 23.0675 31.0601 23.0002 31.6843 22.971C32.4601 22.9489 32.4641 21.7399 31.6843 21.762L31.6803 21.7781Z" fill="white"/>
</svg>
