<svg width="152" height="40" viewBox="0 0 152 40" fill="none" xmlns="http://www.w3.org/2000/svg">
<g opacity="0.9">
<path d="M32.8072 19.9922C32.8072 26.8047 27.2847 32.3272 20.4722 32.3272C13.6598 32.3272 8.13721 26.8047 8.13721 19.9922C8.13721 13.1798 13.6598 7.65723 20.4722 7.65723C27.2847 7.65723 32.8072 13.1798 32.8072 19.9922Z" stroke="#E6F0ED" stroke-width="3"/>
<path d="M25.1922 24.7124C22.6471 27.2575 19.7828 28.8982 17.2686 29.5447C14.7167 30.2009 12.8192 29.7838 11.7499 28.7144C10.6806 27.6451 10.2635 25.7476 10.9197 23.1957C11.5662 20.6816 13.2069 17.8173 15.7519 15.2722C18.297 12.7271 21.1613 11.0864 23.6755 10.4399C26.2274 9.78371 28.1249 10.2008 29.1942 11.2701C30.2635 12.3394 30.6806 14.2369 30.0244 16.7888C29.3779 19.303 27.7372 22.1673 25.1922 24.7124Z" stroke="#E6F0ED" stroke-width="3"/>
<path d="M25.1924 15.2722C27.7375 17.8173 29.3782 20.6816 30.0247 23.1957C30.6809 25.7477 30.2638 27.6451 29.1945 28.7145C28.1251 29.7838 26.2276 30.2009 23.6757 29.5447C21.1616 28.8982 18.2973 27.2575 15.7522 24.7124C13.2071 22.1673 11.5664 19.303 10.9199 16.7889C10.2637 14.2369 10.6808 12.3394 11.7501 11.2701C12.8194 10.2008 14.7169 9.78372 17.2688 10.4399C19.783 11.0864 22.6473 12.7271 25.1924 15.2722Z" stroke="#E6F0ED" stroke-width="3"/>
<path d="M53.0821 28.5328C57.0071 28.5328 59.6571 26.4828 59.6571 23.2078C59.6571 16.2828 50.4571 19.2328 50.4571 15.5828C50.4571 14.5578 51.3821 13.8578 52.8571 13.8578C54.5321 13.8578 55.5821 14.7578 55.7071 16.1328H59.2821C59.1821 12.8078 56.6321 10.6328 52.8571 10.6328C49.3071 10.6328 46.8071 12.6828 46.8071 15.5828C46.8071 22.4578 55.8821 19.8328 55.8821 23.2578C55.8821 24.5828 54.7571 25.2828 53.0821 25.2828C51.2321 25.2828 50.0571 24.1578 49.9071 22.3828H46.3071C46.4571 26.1078 49.1071 28.5328 53.0821 28.5328Z" fill="#E6F0ED"/>
<path d="M60.5073 33.4328H63.9823V27.2078C64.6573 28.0578 65.8823 28.5328 67.3073 28.5328C70.9323 28.5328 73.3823 25.9578 73.3823 22.0328C73.3823 18.1078 71.1323 15.5328 67.6073 15.5328C65.9823 15.5328 64.7323 16.1328 63.9823 17.1078V15.7328H60.5073V33.4328ZM66.8823 25.5328C65.0073 25.5328 63.7823 24.1328 63.7823 22.0328C63.7823 19.9078 65.0073 18.5078 66.8823 18.5078C68.7073 18.5078 69.9573 19.9078 69.9573 22.0328C69.9573 24.1328 68.7073 25.5328 66.8823 25.5328Z" fill="#E6F0ED"/>
<path d="M74.2231 28.3328H77.6981V21.4328C77.6981 19.8078 78.7731 18.6328 80.2981 18.6328C81.7481 18.6328 82.7481 19.7328 82.7481 21.2578V28.3328H86.2231V20.4828C86.2231 17.5828 84.3731 15.5328 81.5481 15.5328C79.7981 15.5328 78.4231 16.2578 77.6981 17.4828V10.2578H74.2231V28.3328Z" fill="#E6F0ED"/>
<path d="M95.9442 24.0578C95.6692 25.1328 94.7442 25.6828 93.3442 25.6828C91.5942 25.6828 90.4692 24.5828 90.2192 22.8078H99.2692C99.2942 22.5328 99.3192 22.1578 99.3192 21.6828C99.3192 18.8078 97.5442 15.5328 93.0942 15.5328C88.8192 15.5328 86.8692 18.8078 86.8692 22.0078C86.8692 25.1828 89.0692 28.5328 93.3442 28.5328C96.4442 28.5328 98.8442 26.7828 99.3442 24.0578H95.9442ZM93.0942 18.0828C94.7692 18.0828 95.7442 19.2078 95.8442 20.6078H90.2692C90.5692 18.8578 91.5192 18.0828 93.0942 18.0828Z" fill="#E6F0ED"/>
<path d="M108.433 18.6328V15.7328H106.64C105.115 15.7328 104.165 16.2578 103.49 17.8328V15.7328H99.9899V28.3328H103.49V22.2078C103.49 20.0578 104.265 18.6328 105.99 18.6328H108.433Z" fill="#E6F0ED"/>
<path d="M120.433 15.7328H116.933V22.6328C116.933 24.2328 115.858 25.4328 114.333 25.4328C112.908 25.4328 111.908 24.3328 111.908 22.8078V15.7328H108.433V23.5828C108.433 26.4578 110.283 28.5328 113.108 28.5328C114.833 28.5328 116.233 27.7828 116.933 26.5828V28.3328H120.433V15.7328Z" fill="#E6F0ED"/>
<path d="M121.933 28.3328H125.408V10.2578H121.933V28.3328Z" fill="#E6F0ED"/>
<path d="M135.329 24.0578C135.054 25.1328 134.129 25.6828 132.729 25.6828C130.979 25.6828 129.854 24.5828 129.604 22.8078H138.654C138.679 22.5328 138.704 22.1578 138.704 21.6828C138.704 18.8078 136.929 15.5328 132.479 15.5328C128.204 15.5328 126.254 18.8078 126.254 22.0078C126.254 25.1828 128.454 28.5328 132.729 28.5328C135.829 28.5328 138.229 26.7828 138.729 24.0578H135.329ZM132.479 18.0828C134.154 18.0828 135.129 19.2078 135.229 20.6078H129.654C129.954 18.8578 130.904 18.0828 132.479 18.0828Z" fill="#E6F0ED"/>
</g>
</svg>
