<svg width="29" height="28" viewBox="0 0 29 28" fill="none" xmlns="http://www.w3.org/2000/svg">
<path d="M26.8069 13.9922C26.8069 20.8046 21.2844 26.3272 14.4719 26.3272C7.65947 26.3272 2.1369 20.8046 2.1369 13.9922C2.1369 7.17973 7.65947 1.65717 14.4719 1.65717C21.2844 1.65717 26.8069 7.17973 26.8069 13.9922Z" stroke="#E6F0ED" stroke-width="3"/>
<path d="M19.192 18.7123C16.647 21.2574 13.7827 22.8981 11.2685 23.5446C8.71657 24.2008 6.81907 23.7837 5.74976 22.7144C4.68045 21.6451 4.26334 19.7476 4.91955 17.1957C5.56605 14.6815 7.20674 11.8172 9.75183 9.27213C12.2969 6.72705 15.1612 5.08636 17.6754 4.43985C20.2273 3.78365 22.1248 4.20075 23.1941 5.27007C24.2634 6.33938 24.6805 8.23687 24.0243 10.7888C23.3778 13.303 21.7371 16.1672 19.192 18.7123Z" stroke="#E6F0ED" stroke-width="3"/>
<path d="M19.1919 9.27208C21.737 11.8172 23.3777 14.6814 24.0242 17.1956C24.6804 19.7475 24.2633 21.645 23.194 22.7143C22.1247 23.7836 20.2272 24.2008 17.6753 23.5445C15.1611 22.898 12.2968 21.2574 9.7517 18.7123C7.20661 16.1672 5.56592 13.3029 4.91942 10.7887C4.26321 8.23682 4.68032 6.33933 5.74963 5.27002C6.81894 4.2007 8.71644 3.7836 11.2683 4.4398C13.7825 5.08631 16.6468 6.727 19.1919 9.27208Z" stroke="#E6F0ED" stroke-width="3"/>
</svg>
