<svg width="93" height="24" viewBox="0 0 93 24" fill="none" xmlns="http://www.w3.org/2000/svg">
<path d="M7.08195 18.5333C11.0069 18.5333 13.6569 16.4833 13.6569 13.2083C13.6569 6.2833 4.45695 9.2333 4.45695 5.5833C4.45695 4.5583 5.38195 3.8583 6.85695 3.8583C8.53195 3.8583 9.58195 4.7583 9.70695 6.1333H13.2819C13.1819 2.8083 10.6319 0.633302 6.85695 0.633302C3.30695 0.633302 0.806946 2.6833 0.806946 5.5833C0.806946 12.4583 9.88195 9.8333 9.88195 13.2583C9.88195 14.5833 8.75695 15.2833 7.08195 15.2833C5.23195 15.2833 4.05695 14.1583 3.90695 12.3833H0.306946C0.456946 16.1083 3.10695 18.5333 7.08195 18.5333Z" fill="#E6F0ED"/>
<path d="M14.5071 23.4333H17.9821V17.2083C18.6571 18.0583 19.8821 18.5333 21.3071 18.5333C24.9321 18.5333 27.3821 15.9583 27.3821 12.0333C27.3821 8.1083 25.1321 5.5333 21.6071 5.5333C19.9821 5.5333 18.7321 6.1333 17.9821 7.1083V5.7333H14.5071V23.4333ZM20.8821 15.5333C19.0071 15.5333 17.7821 14.1333 17.7821 12.0333C17.7821 9.90831 19.0071 8.5083 20.8821 8.5083C22.7071 8.5083 23.9571 9.90831 23.9571 12.0333C23.9571 14.1333 22.7071 15.5333 20.8821 15.5333Z" fill="#E6F0ED"/>
<path d="M28.223 18.3333H31.698V11.4333C31.698 9.8083 32.773 8.6333 34.298 8.6333C35.748 8.6333 36.748 9.7333 36.748 11.2583V18.3333H40.223V10.4833C40.223 7.5833 38.373 5.5333 35.548 5.5333C33.798 5.5333 32.423 6.2583 31.698 7.4833V0.258301H28.223V18.3333Z" fill="#E6F0ED"/>
<path d="M49.9441 14.0583C49.6691 15.1333 48.7441 15.6833 47.3441 15.6833C45.5941 15.6833 44.4691 14.5833 44.2191 12.8083H53.2691C53.2941 12.5333 53.3191 12.1583 53.3191 11.6833C53.3191 8.8083 51.5441 5.5333 47.0941 5.5333C42.8191 5.5333 40.8691 8.8083 40.8691 12.0083C40.8691 15.1833 43.0691 18.5333 47.3441 18.5333C50.4441 18.5333 52.8441 16.7833 53.3441 14.0583H49.9441ZM47.0941 8.0833C48.7691 8.0833 49.7441 9.2083 49.8441 10.6083H44.2691C44.5691 8.8583 45.5191 8.0833 47.0941 8.0833Z" fill="#E6F0ED"/>
<path d="M62.4327 8.6333V5.7333H60.6398C59.1148 5.7333 58.1648 6.2583 57.4898 7.8333V5.7333H53.9898V18.3333H57.4898V12.2083C57.4898 10.0583 58.2648 8.6333 59.9898 8.6333H62.4327Z" fill="#E6F0ED"/>
<path d="M74.4327 5.7333H70.9327V12.6333C70.9327 14.2333 69.8577 15.4333 68.3327 15.4333C66.9077 15.4333 65.9077 14.3333 65.9077 12.8083V5.7333H62.4327V13.5833C62.4327 16.4583 64.2827 18.5333 67.1077 18.5333C68.8327 18.5333 70.2327 17.7833 70.9327 16.5833V18.3333H74.4327V5.7333Z" fill="#E6F0ED"/>
<path d="M75.9329 18.3333H79.4079V0.258301H75.9329V18.3333Z" fill="#E6F0ED"/>
<path d="M89.3288 14.0583C89.0538 15.1333 88.1288 15.6833 86.7288 15.6833C84.9788 15.6833 83.8538 14.5833 83.6038 12.8083H92.6538C92.6788 12.5333 92.7038 12.1583 92.7038 11.6833C92.7038 8.8083 90.9288 5.5333 86.4788 5.5333C82.2038 5.5333 80.2538 8.8083 80.2538 12.0083C80.2538 15.1833 82.4538 18.5333 86.7288 18.5333C89.8288 18.5333 92.2288 16.7833 92.7288 14.0583H89.3288ZM86.4788 8.0833C88.1538 8.0833 89.1288 9.2083 89.2288 10.6083H83.6538C83.9538 8.8583 84.9038 8.0833 86.4788 8.0833Z" fill="#E6F0ED"/>
</svg>
