<svg width="41" height="40" viewBox="0 0 41 40" fill="none" xmlns="http://www.w3.org/2000/svg">
<g id="material-symbols:workspace-premium-rounded">
<path id="Vector" d="M20.5 19.8749L17.6666 22.0416C17.5 22.1805 17.3333 22.1877 17.1666 22.0633C17 21.9388 16.9444 21.7788 17 21.5833L18.0833 18.0833L15.1666 15.7499C15.0277 15.611 14.9861 15.4516 15.0416 15.2716C15.0972 15.0916 15.2222 15.001 15.4166 14.9999H19L20.0833 11.5833C20.1388 11.3888 20.2777 11.2916 20.5 11.2916C20.7222 11.2916 20.8611 11.3888 20.9166 11.5833L22 14.9999H25.5416C25.7361 14.9999 25.8683 15.0905 25.9383 15.2716C26.0083 15.4527 25.9733 15.6121 25.8333 15.7499L22.875 18.0833L23.9583 21.5833C24.0138 21.7777 23.9583 21.9377 23.7916 22.0633C23.625 22.1888 23.4583 22.1816 23.2916 22.0416L20.5 19.8749ZM20.5 34.9999L12.7083 37.5833C12.1527 37.7777 11.6455 37.7083 11.1866 37.3749C10.7277 37.0416 10.4988 36.5971 10.5 36.0416V25.4583C9.4444 24.2916 8.62496 22.9583 8.04163 21.4583C7.45829 19.9583 7.16663 18.361 7.16663 16.6666C7.16663 12.9444 8.45829 9.79159 11.0416 7.20825C13.625 4.62492 16.7777 3.33325 20.5 3.33325C24.2222 3.33325 27.375 4.62492 29.9583 7.20825C32.5416 9.79159 33.8333 12.9444 33.8333 16.6666C33.8333 18.361 33.5416 19.9583 32.9583 21.4583C32.375 22.9583 31.5555 24.2916 30.5 25.4583V36.0416C30.5 36.5971 30.2705 37.0416 29.8116 37.3749C29.3527 37.7083 28.8461 37.7777 28.2916 37.5833L20.5 34.9999ZM20.5 26.6666C23.2777 26.6666 25.6388 25.6944 27.5833 23.7499C29.5277 21.8055 30.5 19.4444 30.5 16.6666C30.5 13.8888 29.5277 11.5277 27.5833 9.58325C25.6388 7.63881 23.2777 6.66659 20.5 6.66659C17.7222 6.66659 15.3611 7.63881 13.4166 9.58325C11.4722 11.5277 10.5 13.8888 10.5 16.6666C10.5 19.4444 11.4722 21.8055 13.4166 23.7499C15.3611 25.6944 17.7222 26.6666 20.5 26.6666Z" fill="white"/>
</g>
</svg>
