<svg width="72" height="20" viewBox="0 0 72 20" fill="none" xmlns="http://www.w3.org/2000/svg">
<path d="M8.68526 0.683865H3.13203C2.75215 0.683865 2.42889 0.954058 2.36946 1.32179L0.123509 15.2688C0.0841552 15.5162 0.256827 15.7478 0.509411 15.7868C0.533104 15.7903 0.557199 15.7923 0.581695 15.7923H3.23282C3.6131 15.7923 3.93636 15.5213 3.99539 15.1536L4.60135 11.3917C4.65998 11.0244 4.98324 10.7534 5.36312 10.753H7.12117C10.7794 10.753 12.8904 9.01934 13.4418 5.58352C13.6904 4.08035 13.4522 2.89929 12.7338 2.07219C11.9444 1.16408 10.5445 0.683472 8.68607 0.683472L8.68526 0.683865ZM9.32576 5.77781C9.02218 7.72934 7.49944 7.72934 6.02731 7.72934H5.18924L5.77714 4.08468C5.81287 3.86444 6.00643 3.70201 6.23411 3.70201H6.61801C7.62072 3.70201 8.5668 3.702 9.0555 4.26206C9.34704 4.59596 9.43619 5.0923 9.32496 5.77781H9.32576ZM25.2851 5.71489H22.626C22.3983 5.71489 22.2043 5.87732 22.169 6.09756L22.0513 6.82594L21.8654 6.56204C21.2896 5.7436 20.0058 5.47026 18.7244 5.47026C15.7857 5.47026 13.2755 7.65029 12.7868 10.7081C12.5326 12.2333 12.8941 13.6921 13.7775 14.7091C14.5879 15.6444 15.7476 16.0341 17.127 16.0341C19.495 16.0341 20.8077 14.5432 20.8077 14.5432L20.6892 15.2668C20.6487 15.5142 20.8209 15.7466 21.0731 15.786C21.0972 15.7899 21.1213 15.7915 21.1454 15.7915H23.5407C23.921 15.7915 24.2443 15.5205 24.3033 15.1528L25.7405 6.23836C25.7811 5.99216 25.6096 5.76011 25.3582 5.72079C25.3341 5.71685 25.3096 5.71489 25.2851 5.71489ZM21.5783 10.7841C21.3217 12.2719 20.1158 13.2709 18.5778 13.2709C17.8056 13.2709 17.1884 13.0282 16.792 12.5684C16.3989 12.1118 16.2495 11.4621 16.3748 10.7384C16.6146 9.26319 17.8405 8.23158 19.3548 8.23158C20.1102 8.23158 20.7238 8.47738 21.1281 8.94108C21.5333 9.40949 21.6939 10.0631 21.5779 10.7837L21.5783 10.7841ZM39.4483 5.71489H36.7759C36.5201 5.71528 36.2808 5.83956 36.137 6.04643L32.4515 11.3638L30.889 6.25409C30.7906 5.93395 30.4898 5.71489 30.1485 5.71489H27.5222C27.2665 5.7141 27.0588 5.91665 27.058 6.16717C27.058 6.21752 27.0665 6.26707 27.0829 6.31466L30.0264 14.7748L27.2592 18.6008C27.111 18.8049 27.16 19.0881 27.3684 19.2328C27.4468 19.2875 27.5407 19.3166 27.6367 19.3166H30.3059C30.5589 19.3166 30.7958 19.1958 30.94 18.9921L39.8282 6.42635C39.974 6.22066 39.9217 5.93828 39.7117 5.79551C39.6342 5.74281 39.5423 5.71449 39.4479 5.71449L39.4483 5.71489Z" fill="#53918C"/>
<path d="M48.4782 0.684258H42.9242C42.5447 0.684258 42.2215 0.954845 42.1624 1.32218L39.9165 15.2692C39.8767 15.5162 40.0486 15.7478 40.3004 15.7868C40.3245 15.7903 40.3486 15.7923 40.3727 15.7923H43.223C43.4888 15.7923 43.7145 15.6023 43.7558 15.3455L44.3931 11.3921C44.4518 11.0248 44.775 10.7538 45.1549 10.7534H46.9121C50.5712 10.7534 52.6814 9.01974 53.2336 5.58392C53.4829 4.08075 53.2432 2.89969 52.5248 2.07259C51.7365 1.16447 50.3371 0.683865 48.4786 0.683865L48.4782 0.684258ZM49.1187 5.77821C48.816 7.72973 47.2932 7.72973 45.8203 7.72973H44.983L45.5717 4.08507C45.6067 3.86483 45.8002 3.7024 46.0279 3.7024H46.4118C47.4137 3.7024 48.3606 3.7024 48.8493 4.26245C49.1408 4.59636 49.2292 5.09269 49.1179 5.77821H49.1187ZM65.0773 5.71528H62.4198C62.1921 5.71449 61.9981 5.87732 61.9636 6.09795L61.8459 6.82634L61.6592 6.56244C61.0834 5.74399 59.8004 5.47065 58.519 5.47065C55.5803 5.47065 53.0713 7.65068 52.5822 10.7085C52.3288 12.2337 52.6886 13.6925 53.5721 14.7095C54.3841 15.6448 55.5422 16.0345 56.9215 16.0345C59.2896 16.0345 60.6023 14.5436 60.6023 14.5436L60.4838 15.2672C60.4433 15.5146 60.6155 15.747 60.8677 15.7864C60.8922 15.7903 60.9171 15.7923 60.9416 15.7919H63.3361C63.716 15.7919 64.0389 15.5209 64.0979 15.1532L65.5359 6.23875C65.5749 5.99098 65.4014 5.75893 65.1484 5.72079C65.1247 5.71725 65.101 5.71528 65.0773 5.71567V5.71528ZM61.3705 10.7845C61.1155 12.2723 59.908 13.2712 58.37 13.2712C57.5994 13.2712 56.9806 13.0286 56.5842 12.5688C56.1911 12.1122 56.0433 11.4625 56.167 10.7388C56.4083 9.26358 57.6327 8.23197 59.147 8.23197C59.9024 8.23197 60.5159 8.47778 60.9203 8.94147C61.3271 9.40989 61.4877 10.0635 61.3701 10.7841L61.3705 10.7845ZM68.2123 1.06693L65.9331 15.2692C65.8933 15.5162 66.0652 15.7478 66.317 15.7868C66.341 15.7903 66.3651 15.7923 66.3892 15.7923H68.6806C69.0612 15.7923 69.3845 15.5217 69.4431 15.1536L71.6907 1.20734C71.7304 0.959958 71.5582 0.727914 71.3056 0.688978C71.2819 0.685438 71.2582 0.683472 71.2341 0.683472H68.6681C68.4404 0.684258 68.2473 0.846689 68.2119 1.06693H68.2123Z" fill="#E6F0ED"/>
</svg>
