<svg width="15" height="15" viewBox="0 0 15 15" fill="none" xmlns="http://www.w3.org/2000/svg">
<g id="social">
<path id="linkedin" fill-rule="evenodd" clip-rule="evenodd" d="M1.19055 2.6252C1.19055 2.19523 1.55164 1.8252 2.02389 1.8252C2.49613 1.8252 2.85722 2.19523 2.85722 2.6252C2.85722 3.05516 2.49613 3.42519 2.02389 3.42519C1.55164 3.42519 1.19055 3.05516 1.19055 2.6252ZM2.02389 0.825195C1.02337 0.825195 0.190552 1.61922 0.190552 2.6252C0.190552 3.63117 1.02337 4.42519 2.02389 4.42519C3.0244 4.42519 3.85722 3.63117 3.85722 2.6252C3.85722 1.61922 3.0244 0.825195 2.02389 0.825195ZM10.0239 5.7252C9.0916 5.7252 8.19997 6.0864 7.54451 6.72548C6.88948 7.36413 6.52388 8.2276 6.52388 9.1252V13.1752H8.19055V9.1252C8.19055 8.64366 8.38686 8.18449 8.73203 7.84796C9.07676 7.51184 9.54168 7.3252 10.0239 7.3252C10.5061 7.3252 10.971 7.51184 11.3157 7.84796C11.6609 8.18449 11.8572 8.64366 11.8572 9.1252V13.1752H13.5239V9.1252C13.5239 8.2276 13.1583 7.36413 12.5033 6.72548C11.8478 6.0864 10.9562 5.7252 10.0239 5.7252ZM10.0239 4.7252C8.83444 4.7252 7.69124 5.18577 6.84641 6.00948C6.00115 6.83361 5.52388 7.9541 5.52388 9.1252V13.6752C5.52388 13.9513 5.74774 14.1752 6.02388 14.1752H8.69055C8.96669 14.1752 9.19055 13.9513 9.19055 13.6752V9.1252C9.19055 8.91717 9.27519 8.71502 9.43013 8.56396C9.58549 8.41248 9.79884 8.3252 10.0239 8.3252C10.2489 8.3252 10.4623 8.41248 10.6176 8.56396C10.7726 8.71502 10.8572 8.91717 10.8572 9.1252V13.6752C10.8572 13.9513 11.0811 14.1752 11.3572 14.1752H14.0239C14.3 14.1752 14.5239 13.9513 14.5239 13.6752V9.1252C14.5239 7.9541 14.0466 6.83361 13.2014 6.00948C12.3565 5.18577 11.2133 4.7252 10.0239 4.7252ZM0.190552 5.8752C0.190552 5.59905 0.414409 5.3752 0.690552 5.3752H3.35722C3.63336 5.3752 3.85722 5.59905 3.85722 5.8752V13.6752C3.85722 13.9513 3.63336 14.1752 3.35722 14.1752H0.690552C0.414409 14.1752 0.190552 13.9513 0.190552 13.6752V5.8752ZM1.19055 6.3752V13.1752H2.85722V6.3752H1.19055Z" fill="#1A4048"/>
</g>
</svg>
