<svg width="65" height="64" viewBox="0 0 65 64" fill="none" xmlns="http://www.w3.org/2000/svg">
<g id="social" filter="url(#filter0_dd_2_583)">
<circle id="Ellipse 17" cx="32.3572" cy="24" r="12" fill="white"/>
<path id="instagram" fill-rule="evenodd" clip-rule="evenodd" d="M28.6247 17C26.8201 17 25.3572 18.4629 25.3572 20.2675V27.8024C25.3572 29.607 26.8201 31.0699 28.6247 31.0699H36.1596C37.9642 31.0699 39.4271 29.607 39.4271 27.8024V20.2675C39.4271 18.4629 37.9642 17 36.1596 17H28.6247ZM24.3572 20.2675C24.3572 17.9106 26.2678 16 28.6247 16H36.1596C38.5165 16 40.4271 17.9106 40.4271 20.2675V27.8024C40.4271 30.1593 38.5165 32.0699 36.1596 32.0699H28.6247C26.2678 32.0699 24.3572 30.1593 24.3572 27.8024V20.2675ZM32.7936 21.5154C32.2705 21.4379 31.7363 21.5272 31.267 21.7707C30.7976 22.0143 30.417 22.3996 30.1793 22.872C29.9415 23.3443 29.8588 23.8795 29.9428 24.4016C30.0268 24.9237 30.2733 25.406 30.6472 25.7799C31.0211 26.1538 31.5034 26.4003 32.0255 26.4843C32.5475 26.5683 33.0828 26.4855 33.5551 26.2478C34.0274 26.0101 34.4128 25.6294 34.6563 25.1601C34.8999 24.6907 34.9892 24.1565 34.9116 23.6335C34.8325 23.0999 34.5839 22.606 34.2025 22.2246C33.8211 21.8432 33.3272 21.5945 32.7936 21.5154ZM30.8064 20.8831C31.4625 20.5427 32.2092 20.4178 32.9403 20.5262C33.6861 20.6368 34.3765 20.9843 34.9096 21.5175C35.4427 22.0506 35.7902 22.741 35.9008 23.4868C36.0092 24.2179 35.8844 24.9646 35.5439 25.6207C35.2035 26.2767 34.6649 26.8087 34.0047 27.141C33.3445 27.4733 32.5963 27.589 31.8666 27.4716C31.1368 27.3541 30.4627 27.0096 29.9401 26.487C29.4175 25.9643 29.0729 25.2902 28.9555 24.5605C28.8381 23.8308 28.9537 23.0826 29.286 22.4224C29.6183 21.7622 30.1504 21.2235 30.8064 20.8831ZM36.5364 19.3907C36.2602 19.3907 36.0364 19.6146 36.0364 19.8907C36.0364 20.1669 36.2602 20.3907 36.5364 20.3907H36.545C36.8211 20.3907 37.045 20.1669 37.045 19.8907C37.045 19.6146 36.8211 19.3907 36.545 19.3907H36.5364Z" fill="#1A4048"/>
</g>
<defs>
<filter id="filter0_dd_2_583" x="0.357178" y="0" width="64" height="64" filterUnits="userSpaceOnUse" color-interpolation-filters="sRGB">
<feFlood flood-opacity="0" result="BackgroundImageFix"/>
<feColorMatrix in="SourceAlpha" type="matrix" values="0 0 0 0 0 0 0 0 0 0 0 0 0 0 0 0 0 0 127 0" result="hardAlpha"/>
<feMorphology radius="4" operator="erode" in="SourceAlpha" result="effect1_dropShadow_2_583"/>
<feOffset dy="8"/>
<feGaussianBlur stdDeviation="12"/>
<feColorMatrix type="matrix" values="0 0 0 0 0.0941176 0 0 0 0 0.152941 0 0 0 0 0.294118 0 0 0 0.08 0"/>
<feBlend mode="normal" in2="BackgroundImageFix" result="effect1_dropShadow_2_583"/>
<feColorMatrix in="SourceAlpha" type="matrix" values="0 0 0 0 0 0 0 0 0 0 0 0 0 0 0 0 0 0 127 0" result="hardAlpha"/>
<feMorphology radius="6" operator="erode" in="SourceAlpha" result="effect2_dropShadow_2_583"/>
<feOffset dy="6"/>
<feGaussianBlur stdDeviation="6"/>
<feColorMatrix type="matrix" values="0 0 0 0 0.0941176 0 0 0 0 0.152941 0 0 0 0 0.294118 0 0 0 0.12 0"/>
<feBlend mode="normal" in2="effect1_dropShadow_2_583" result="effect2_dropShadow_2_583"/>
<feBlend mode="normal" in="SourceGraphic" in2="effect2_dropShadow_2_583" result="shape"/>
</filter>
</defs>
</svg>
