<svg width="15" height="16" viewBox="0 0 15 16" fill="none" xmlns="http://www.w3.org/2000/svg">
<path id="Vector" d="M13.8187 4.50019C12.9621 4.4993 12.1409 4.15863 11.5352 3.55293C10.9295 2.94724 10.5888 2.126 10.5879 1.26942C10.5879 1.12661 10.5312 0.98965 10.4302 0.888669C10.3293 0.787688 10.1923 0.730957 10.0495 0.730957H7.35718C7.21437 0.730957 7.07741 0.787688 6.97643 0.888669C6.87545 0.98965 6.81872 1.12661 6.81872 1.26942V10.154C6.81861 10.3949 6.75386 10.6314 6.63124 10.8387C6.50861 11.046 6.3326 11.2167 6.12156 11.3328C5.91052 11.4489 5.67218 11.5063 5.43141 11.4989C5.19064 11.4916 4.95626 11.4197 4.75271 11.2909C4.54916 11.1621 4.3839 10.981 4.27418 10.7666C4.16445 10.5522 4.11428 10.3122 4.12889 10.0718C4.1435 9.83133 4.22236 9.59921 4.35724 9.39964C4.49212 9.20006 4.67809 9.04033 4.89574 8.93711C4.9878 8.89342 5.06558 8.8245 5.12003 8.73835C5.17448 8.65221 5.20337 8.55238 5.20333 8.45048V5.57711C5.20337 5.4984 5.18614 5.42064 5.15288 5.34931C5.11961 5.27797 5.07111 5.2148 5.01079 5.16423C4.95047 5.11366 4.8798 5.07694 4.80376 5.05664C4.72771 5.03633 4.64813 5.03295 4.57064 5.04673C2.16843 5.4748 0.357178 7.67038 0.357178 10.154C0.357178 11.5107 0.896118 12.8118 1.85544 13.7712C2.81476 14.7305 4.11588 15.2694 5.47256 15.2694C6.82925 15.2694 8.13036 14.7305 9.08969 13.7712C10.049 12.8118 10.5879 11.5107 10.5879 10.154V7.48125C11.5852 8.00156 12.6939 8.27203 13.8187 8.26942C13.9615 8.26942 14.0985 8.21269 14.1995 8.11171C14.3004 8.01073 14.3572 7.87377 14.3572 7.73096V5.03865C14.3572 4.89584 14.3004 4.75888 14.1995 4.6579C14.0985 4.55692 13.9615 4.50019 13.8187 4.50019ZM13.2803 7.16826C12.228 7.07499 11.2204 6.69944 10.3638 6.08125C10.2833 6.02336 10.1884 5.98883 10.0895 5.98147C9.9906 5.9741 9.8916 5.99418 9.8034 6.0395C9.7152 6.08482 9.64123 6.15361 9.58964 6.23829C9.53805 6.32297 9.51084 6.42026 9.51102 6.51942V10.154C9.51102 11.2251 9.08554 12.2523 8.32819 13.0097C7.57083 13.767 6.54363 14.1925 5.47256 14.1925C4.4015 14.1925 3.3743 13.767 2.61694 13.0097C1.85958 12.2523 1.4341 11.2251 1.4341 10.154C1.4341 8.41076 2.5541 6.84721 4.12641 6.27711V8.13951C3.77833 8.37209 3.49644 8.69087 3.30822 9.0648C3.11999 9.43873 3.03186 9.85505 3.05241 10.2732C3.07295 10.6913 3.20147 11.097 3.42545 11.4506C3.64942 11.8043 3.9612 12.0939 4.33041 12.2913C4.69962 12.4886 5.11365 12.5869 5.53215 12.5766C5.95065 12.5663 6.35935 12.4478 6.71841 12.2325C7.07746 12.0173 7.37463 11.7127 7.58094 11.3484C7.78726 10.9842 7.89568 10.5727 7.89564 10.154V1.80788H9.54468C9.66577 2.7563 10.0983 3.63769 10.7744 4.31377C11.4504 4.98985 12.3318 5.42236 13.2803 5.54346V7.16826Z" fill="#1A4048"/>
</svg>
