<svg width="20" height="21" viewBox="0 0 20 21" fill="none" xmlns="http://www.w3.org/2000/svg">
<path id="Union" fill-rule="evenodd" clip-rule="evenodd" d="M1.5 9.12941C1.5 5.37734 4.54164 2.33569 8.2937 2.33569C12.0458 2.33569 15.0874 5.37735 15.0874 9.12941C15.0874 12.8815 12.0458 15.9231 8.2937 15.9231C4.54164 15.9231 1.5 12.8815 1.5 9.12941ZM8.2937 0.835693C3.71321 0.835693 0 4.54892 0 9.12941C0 13.7099 3.71321 17.4231 8.2937 17.4231C10.3139 17.4231 12.1655 16.7008 13.6041 15.5003L18.0484 19.9446C18.3413 20.2375 18.8161 20.2375 19.109 19.9446C19.4019 19.6517 19.4019 19.1768 19.109 18.8839L14.6648 14.4397C15.8652 13.001 16.5874 11.1496 16.5874 9.12941C16.5874 4.54891 12.8742 0.835693 8.2937 0.835693Z" fill="white"/>
</svg>
