<svg width="23" height="22" viewBox="0 0 23 22" fill="none" xmlns="http://www.w3.org/2000/svg">
<path d="M19.4006 3.19765C17.3437 1.13528 14.6035 0.000976562 11.6915 0.000976562C5.68172 0.000976562 0.789784 4.89155 0.789784 10.9027C0.789784 12.8221 1.29025 14.6988 2.24307 16.3528L0.696289 21.9996L6.47642 20.4817C8.0672 21.3506 9.86009 21.8071 11.686 21.8071H11.6915C17.6971 21.8071 22.6963 16.9165 22.6963 10.9054C22.6949 7.99473 21.4575 5.26002 19.4006 3.19765ZM11.6915 19.9716C10.0608 19.9716 8.46593 19.5344 7.07589 18.7094L6.74729 18.5128L3.31962 19.412L4.23257 16.0682L4.01671 15.7245C3.10789 14.2808 2.63216 12.6158 2.63216 10.9027C2.63216 5.90898 6.69779 1.84336 11.697 1.84336C14.1182 1.84336 16.3909 2.78656 18.0999 4.4997C19.809 6.21284 20.8594 8.48695 20.8553 10.9082C20.8539 15.906 16.6852 19.9716 11.6915 19.9716ZM16.6604 13.185C16.3909 13.0475 15.0504 12.389 14.7988 12.301C14.5485 12.2075 14.3671 12.1635 14.1856 12.4385C14.0041 12.7134 13.483 13.3225 13.3208 13.5095C13.164 13.691 13.0018 13.7157 12.7309 13.5783C11.1305 12.7781 10.0787 12.1497 9.02414 10.3376C8.74366 9.85637 9.30463 9.89074 9.82434 8.84993C9.91234 8.66844 9.86833 8.51169 9.79959 8.3742C9.73084 8.23671 9.18638 6.89618 8.95952 6.35171C8.73815 5.82099 8.51267 5.89523 8.3463 5.88561C8.18956 5.87598 8.00808 5.87598 7.82522 5.87598C7.64235 5.87598 7.3495 5.94473 7.09789 6.21421C6.84765 6.48919 6.14507 7.14779 6.14507 8.48833C6.14507 9.82887 7.12263 11.1254 7.25462 11.3069C7.39212 11.4884 9.17401 14.2382 11.9101 15.422C13.6384 16.1686 14.3162 16.2318 15.181 16.104C15.7062 16.0256 16.791 15.4454 17.0179 14.8074C17.2434 14.1695 17.2434 13.6236 17.1746 13.5109C17.1128 13.3858 16.9299 13.317 16.6604 13.185Z" fill="white"/>
</svg>
