<svg width="15" height="5" viewBox="0 0 15 5" fill="none" xmlns="http://www.w3.org/2000/svg">
<path id="Vector" d="M0.932373 0.959106H2.03079C2.64814 0.959106 3.06643 1.36621 3.06643 1.96881C3.06643 2.57141 2.64379 2.98082 2.0285 2.98082H1.23659V4.20397H0.932373V0.959106ZM1.23659 1.23358V2.70634H1.95909C2.45572 2.70634 2.75329 2.4298 2.75329 1.96881C2.75329 1.50782 2.45801 1.23358 1.95909 1.23358H1.23659ZM5.35054 1.86542V4.20397H5.07084V3.76993H5.0642C4.94118 4.05776 4.66148 4.2422 4.29244 4.2422C3.78688 4.2422 3.47144 3.91154 3.47144 3.38539V1.86542H3.76901V3.33381C3.76901 3.74759 3.98823 3.97694 4.37743 3.97694C4.78244 3.97694 5.05526 3.69118 5.05526 3.25276V1.86542H5.35054ZM5.86069 4.20397V1.86542H6.14016V2.29716H6.14703C6.26546 2.01371 6.53852 1.8272 6.9142 1.8272C7.42435 1.8272 7.7375 2.15762 7.7375 2.68838V4.20397H7.44222V2.73559C7.44222 2.32641 7.21842 2.09246 6.82922 2.09246C6.42651 2.09246 6.15597 2.38489 6.15597 2.81871V4.20397H5.86069ZM8.36379 1.28078H8.65907V1.86542H9.11768V2.11272H8.65907V3.61473C8.65907 3.85535 8.75322 3.95897 8.96786 3.95897C8.99925 3.95897 9.11103 3.95437 9.1289 3.94976V4.20397C9.09775 4.21065 8.97244 4.21756 8.90967 4.21756C8.52048 4.21756 8.36379 4.05108 8.36379 3.62832V2.11272H8.0172V1.86542H8.36379V1.28078ZM10.2207 3.98591C10.6277 3.98591 10.9478 3.69578 10.9478 3.32483V3.06624L10.2587 3.11345C9.89172 3.13809 9.6883 3.29766 9.6883 3.55647C9.6883 3.81045 9.90524 3.98591 10.2207 3.98591ZM10.1602 4.2422C9.70159 4.2422 9.38844 3.96565 9.38844 3.55647C9.38844 3.15605 9.68601 2.91335 10.223 2.8772L10.9478 2.8323V2.6299C10.9478 2.29256 10.7352 2.09016 10.3728 2.09016C10.0305 2.09016 9.81132 2.25894 9.75977 2.54217H9.47343C9.50711 2.12401 9.84934 1.8272 10.3794 1.8272C10.9097 1.8272 11.243 2.12631 11.243 2.60295V4.20397H10.961V3.75864H10.9544C10.8247 4.04878 10.507 4.2422 10.1602 4.2422ZM12.0551 1.86542V4.35249C12.0551 4.80657 11.8402 5.0023 11.3862 5.0023C11.3793 5.0023 11.3168 5.0023 11.3145 4.99999V4.74809C11.3168 4.74809 11.3727 4.74809 11.375 4.74809C11.6501 4.74809 11.7598 4.64032 11.7598 4.35687V1.86542H12.0551ZM11.9074 1.39315C11.7999 1.39315 11.7106 1.30542 11.7106 1.19536C11.7106 1.08736 11.7999 0.999632 11.9074 0.999632C12.0171 0.999632 12.1064 1.08736 12.1064 1.19536C12.1064 1.30542 12.0171 1.39315 11.9074 1.39315ZM13.5047 2.08809C13.0885 2.08809 12.8001 2.40953 12.7753 2.87052H14.2116C14.2047 2.40953 13.9253 2.08809 13.5047 2.08809ZM14.1937 3.54059H14.4867C14.4173 3.94539 14.0394 4.2422 13.5269 4.2422C12.8738 4.2422 12.4688 3.78351 12.4688 3.04138C12.4688 2.31513 12.8782 1.8272 13.509 1.8272C14.1266 1.8272 14.5158 2.28358 14.5158 2.98082V3.10654H12.773V3.1245C12.773 3.65295 13.0706 3.98131 13.5338 3.98131C13.885 3.98131 14.1287 3.79687 14.1937 3.54059Z" fill="#00152E"/>
</svg>
