<svg width="23" height="22" viewBox="0 0 23 22" fill="none" xmlns="http://www.w3.org/2000/svg">
<path id="Vector" d="M19.4007 3.19734C17.3439 1.13497 14.6037 0.000671387 11.6916 0.000671387C5.68184 0.000671387 0.789906 4.89124 0.789906 10.9024C0.789906 12.8217 1.29037 14.6985 2.24319 16.3525L0.696411 21.9993L6.47654 20.4814C8.06732 21.3503 9.86021 21.8068 11.6861 21.8068H11.6916C17.6972 21.8068 22.6964 16.9162 22.6964 10.9051C22.695 7.99442 21.4576 5.25971 19.4007 3.19734ZM11.6916 19.9713C10.0609 19.9713 8.46605 19.5341 7.07601 18.7091L6.74741 18.5125L3.31974 19.4117L4.23269 16.0679L4.01683 15.7242C3.10801 14.2805 2.63229 12.6155 2.63229 10.9024C2.63229 5.90868 6.69791 1.84305 11.6971 1.84305C14.1183 1.84305 16.3911 2.78625 18.1001 4.49939C19.8091 6.21254 20.8595 8.48664 20.8554 10.9079C20.854 15.9057 16.6853 19.9713 11.6916 19.9713ZM16.6605 13.1847C16.3911 13.0472 15.0505 12.3886 14.7989 12.3007C14.5487 12.2072 14.3672 12.1632 14.1857 12.4382C14.0042 12.7131 13.4831 13.3222 13.3209 13.5092C13.1641 13.6907 13.0019 13.7154 12.731 13.5779C11.1306 12.7777 10.0788 12.1494 9.02427 10.3373C8.74378 9.85606 9.30475 9.89044 9.82447 8.84963C9.91246 8.66814 9.86846 8.51139 9.79971 8.37389C9.73096 8.2364 9.1865 6.89587 8.95964 6.3514C8.73828 5.82069 8.51279 5.89493 8.34643 5.8853C8.18969 5.87568 8.0082 5.87567 7.82534 5.87567C7.64247 5.87567 7.34962 5.94442 7.09801 6.2139C6.84777 6.48889 6.14519 7.14748 6.14519 8.48802C6.14519 9.82856 7.12276 11.1251 7.25475 11.3066C7.39224 11.4881 9.17413 14.2379 11.9102 15.4217C13.6385 16.1683 14.3163 16.2315 15.1811 16.1037C15.7063 16.0253 16.7911 15.4451 17.018 14.8071C17.2435 14.1692 17.2435 13.6233 17.1748 13.5106C17.1129 13.3855 16.93 13.3167 16.6605 13.1847Z" fill="white"/>
</svg>
